<svg width="54" height="19" viewBox="0 0 54 19" fill="none" xmlns="http://www.w3.org/2000/svg">
<path d="M43.786 14.2465H47.6738C47.1495 14.6617 46.8104 15.2609 46.8104 15.8867C46.8104 17.1629 48.0449 18.2034 49.5573 18.2034C51.0694 18.2034 52.3042 17.1629 52.3042 15.8867C52.3042 15.2882 52.0564 14.715 51.532 14.2465H54V13.4124H51.5317V10.0001H15.3069V0.259766H1.7606V1.45985H8.82691V6.66653H4.59923V12.4239L12.9611 12.4238C13.5772 12.5012 13.5167 13.1785 12.9298 13.2304H1.52588e-05V14.2468H5.09219C4.59913 14.6621 4.25951 15.2613 4.25951 15.8871C4.25951 17.1633 5.49404 18.2037 7.00589 18.2037C8.51797 18.2037 9.75124 17.1632 9.75124 15.8871C9.75124 15.2358 9.4111 14.6388 8.91802 14.2468H13.022C12.9907 14.3493 12.962 14.4555 12.962 14.5316C12.962 16.6163 14.9984 18.3346 17.436 18.3346C19.873 18.3346 21.8785 16.6428 21.8785 14.5316C21.8785 14.4551 21.8477 14.3238 21.8477 14.2199H23.916C23.916 14.3489 23.8847 14.4542 23.8847 14.5316C23.8847 16.6163 25.9211 18.3346 28.3586 18.3346C30.7956 18.3346 32.8022 16.6428 32.8022 14.5316C32.8022 14.4802 32.7709 14.4017 32.7401 14.2468H34.9616C34.9616 14.3762 34.9309 14.4555 34.9309 14.5316C34.9309 16.6163 36.9661 18.3346 39.4054 18.3346C41.8419 18.3346 43.8484 16.6428 43.8484 14.5316C43.8482 14.4555 43.8169 14.3753 43.7856 14.2468" fill="#C5C5C5"/>
<path d="M40.3294 1.78023H41.0222L41.6475 1.78007H42.0294H42.5258H43.2609H43.8033L44.078 1.78023L45.0205 1.78008L48.5078 1.78023L51.5312 5.60785L48.5078 9.43775H16.2011V1.75592C18.3596 1.83381 18.2056 1.0782 18.3596 0.530762H31.814C31.8745 0.948237 31.814 1.78038 33.5107 1.78038L40.3294 1.78023Z" fill="#C5C5C5"/>
</svg>
