<svg width="58" height="31" viewBox="0 0 58 31" fill="none" xmlns="http://www.w3.org/2000/svg">
<path d="M31.7646 24.0474H41.279V27.1938H31.7646V24.0474Z" fill="#C5C5C5"/>
<path d="M32.0645 20.002H36.1096V23.523H32.0645V20.002Z" fill="#C5C5C5"/>
<path d="M36.9336 20.002H40.9787V23.523H36.9336V20.002Z" fill="#C5C5C5"/>
<path d="M26.9697 20.002H31.0149V23.523H26.9697V20.002Z" fill="#C5C5C5"/>
<path d="M22.0254 20.002H26.0705V23.523H22.0254V20.002Z" fill="#C5C5C5"/>
<path d="M21.8008 24.0474H31.3151V27.1938H21.8008V24.0474Z" fill="#C5C5C5"/>
<path d="M6.06836 19.9272H7.41656V21.3508H6.06836V19.9272Z" fill="#C5C5C5"/>
<path d="M8.31641 19.9272H9.66461V21.3508H8.31641V19.9272Z" fill="#C5C5C5"/>
<path d="M10.4883 22.1743H11.8365V23.5978H10.4883V22.1743Z" fill="#C5C5C5"/>
<path d="M8.31641 22.1743H9.66461V23.5978H8.31641V22.1743Z" fill="#C5C5C5"/>
<path d="M6.06836 22.1743H7.41656V23.5978H6.06836V22.1743Z" fill="#C5C5C5"/>
<path d="M10.4883 19.9272H11.8365V21.3508H10.4883V19.9272Z" fill="#C5C5C5"/>
<path d="M12.7363 19.9272H14.0845V21.3508H12.7363V19.9272Z" fill="#C5C5C5"/>
<path d="M12.7363 22.1743H14.0845V23.5978H12.7363V22.1743Z" fill="#C5C5C5"/>
<path d="M43.7506 24.9463C43.7506 26.5198 42.7018 27.7932 41.503 27.7932H41.2783L28.9922 27.7927V30.8643H54.3884V29.3662L57.2353 24.9463L43.7506 24.9463ZM52.3661 27.7927C51.9166 27.7927 51.6167 27.3433 51.6167 26.8186C51.6167 26.294 51.9914 25.8445 52.3661 25.8445C52.8155 25.8445 53.1154 26.294 53.1154 26.8186C53.1149 27.4185 52.7402 27.7927 52.3661 27.7927Z" fill="#C5C5C5"/>
<path d="M21.2014 27.7931C21.1261 27.7931 21.2014 27.7931 21.2014 27.7931C19.8532 27.7931 18.7292 26.5196 18.5044 24.9462H16.0322V17.5295H9.96423L9.88898 8.615H12.3612V7.19148H9.88898V4.34457L12.1366 4.34509V3.67098H9.88898V0H9.43957V3.67098H8.31606V4.34509H9.43957L9.28959 17.53H8.09083V15.2824H6.14317V17.53H2.4722V24.9467H0L1.04878 29.3666L1.42347 30.8648H42.3271V27.7931L21.2014 27.7931ZM5.24444 23.6732H3.89624V22.2497H5.24444V23.6732ZM5.24444 21.3504H3.89624V19.9269H5.24444V21.3504ZM7.41725 23.6732H6.06905V22.2497H7.41725V23.6732ZM7.41725 21.3504H6.06905V19.9269H7.41725V21.3504ZM9.6643 23.6732H8.3161V22.2497H9.6643V23.6732ZM9.6643 21.3504H8.3161V19.9269H9.6643V21.3504ZM11.8371 23.6732H10.4889V22.2497H11.8371V23.6732ZM11.8371 21.3504H10.4889V19.9269H11.8371V21.3504ZM14.0847 23.6732H12.7365V22.2497H14.0847V23.6732ZM14.0847 21.3504H12.7365V19.9269H14.0847V21.3504Z" fill="#C5C5C5"/>
</svg>
