<svg width="54" height="19" viewBox="0 0 54 19" fill="none" xmlns="http://www.w3.org/2000/svg">
<path fill-rule="evenodd" clip-rule="evenodd" d="M46.1366 3.01513V5.46504H51.2771V6.11737H46.1366V10.0815H45.1741V0H43.504V1.4337H1.66927V0H3.8147e-06V14.5809H3.35656L4.62157 17.1797H5.28984C5.28984 15.8548 6.36168 14.783 7.6865 14.783C9.01133 14.783 10.0832 15.8548 10.0832 17.1797H10.9256C10.9256 15.8548 11.9967 14.783 13.3215 14.783C14.6463 14.783 15.7181 15.8548 15.7181 17.1797H16.5481L17.8139 14.5809H32.3122L33.578 17.1797H35.2644C35.2644 15.8548 36.3362 14.783 37.6611 14.783C38.9859 14.783 40.0577 15.8548 40.0577 17.1797H46.41C46.41 15.8548 47.481 14.783 48.8058 14.783C50.121 14.783 51.1846 15.8377 51.2017 17.1489C52.3136 17.0665 53.9238 16.9067 53.9238 15.6553V6.49774C53.9238 4.44283 47.7955 3.18398 46.1359 3.0149L46.1366 3.01513ZM15.7528 12.1069H4.37953V13.0457H15.7528V12.1069ZM29.4221 12.1069H18.0488V13.0457H29.4221V12.1069ZM44.9334 13.0034H36.2463L34.0557 13.838H44.9333L44.9334 13.0034ZM46.055 11.1766H42.6635V12.0113H46.055V11.1766ZM7.68661 15.3896C6.69801 15.3896 5.89603 16.1912 5.89603 17.1802C5.89603 18.1695 6.69764 18.9711 7.68661 18.9711C8.67599 18.9711 9.4776 18.1695 9.4776 17.1802C9.4776 16.1916 8.67598 15.3896 7.68661 15.3896ZM13.322 15.3896C12.3334 15.3896 11.5314 16.1912 11.5314 17.1802C11.5314 18.1695 12.333 18.9711 13.322 18.9711C14.3114 18.9711 15.113 18.1695 15.113 17.1802C15.113 16.1916 14.3114 15.3896 13.322 15.3896ZM37.6619 15.3896C36.6725 15.3896 35.8713 16.1912 35.8713 17.1802C35.8713 18.1695 36.6726 18.9711 37.6619 18.9711C38.6513 18.9711 39.4529 18.1695 39.4529 17.1802C39.4529 16.1916 38.6513 15.3896 37.6619 15.3896ZM48.8063 15.3896C47.8177 15.3896 47.0157 16.1912 47.0157 17.1802C47.0157 18.1695 47.8173 18.9711 48.8063 18.9711C49.7957 18.9711 50.5973 18.1695 50.5973 17.1802C50.5973 16.1916 49.7957 15.3896 48.8063 15.3896ZM53.181 12.1955V7.693H50.1195C48.3989 7.693 47.5821 10.0462 50.1195 11.0192L53.181 12.1955Z" fill="#C5C5C5"/>
</svg>
