<svg width="32" height="52" viewBox="0 0 32 52" fill="none" xmlns="http://www.w3.org/2000/svg">
<path d="M8.33594 1.5089V41.6598H15.1616L16.6705 40.1509V0H9.83836L8.33594 1.5089ZM10.4082 2.09821H14.5723V39.5745H10.4082V2.09821Z" fill="white"/>
<path d="M0 41.6468H2.09173V0H1.50242L0 1.5089V41.6468Z" fill="white"/>
<path d="M31.2388 40.1641V20.1211H30.6495L29.1665 21.6106V39.5748H25.0025V22.2193H24.3873L22.9043 23.7023V41.6471H29.7364L31.2388 40.1641Z" fill="white"/>
<path d="M29.7558 18.0485L31.2388 16.546V0H24.4132L22.9043 1.5089V20.1208H23.4936L25.0025 18.6183V2.09821H29.1665V18.0485H29.7558Z" fill="white"/>
<path d="M0.664099 49.5767V45.301H1.78258C2.09016 45.301 2.34881 45.3499 2.55853 45.4477C2.76825 45.5403 2.93835 45.6792 3.06884 45.8644C3.20399 46.0445 3.29952 46.2657 3.35545 46.5282C3.41604 46.7854 3.44633 47.0787 3.44633 47.408C3.44633 47.7476 3.4137 48.0383 3.34846 48.2801C3.28787 48.5168 3.20865 48.7148 3.11078 48.8744C3.01291 49.0339 2.90107 49.1599 2.77524 49.2526C2.65407 49.3452 2.53057 49.4172 2.40474 49.4686C2.27891 49.515 2.16007 49.5458 2.04822 49.5613C1.93637 49.5715 1.84317 49.5767 1.7686 49.5767H0.664099ZM0 44.6836V50.1941H1.71268C2.12745 50.1941 2.4863 50.1298 2.78922 50.0012C3.09214 49.8725 3.34147 49.6873 3.5372 49.4455C3.73294 49.1985 3.87741 48.8975 3.97061 48.5425C4.06382 48.1823 4.11042 47.7707 4.11042 47.3077C4.11042 46.4227 3.90304 45.7641 3.48827 45.3319C3.0735 44.8997 2.48163 44.6836 1.71268 44.6836H0ZM7.33375 47.817H5.25758C5.2669 47.6627 5.29719 47.5186 5.34846 47.3848C5.39972 47.2459 5.46963 47.125 5.55818 47.0221C5.64672 46.9192 5.75157 46.8394 5.87275 46.7828C5.99858 46.7211 6.13839 46.6902 6.29218 46.6902C6.44131 46.6902 6.57647 46.7211 6.69762 46.7828C6.82345 46.8394 6.93061 46.9192 7.01918 47.0221C7.11236 47.1199 7.18465 47.2382 7.23589 47.3771C7.29181 47.516 7.32446 47.6627 7.33375 47.817ZM7.90698 48.9284H7.31977C7.26853 49.1908 7.1613 49.3863 6.99821 49.515C6.83973 49.6436 6.6347 49.7079 6.38306 49.7079C6.18732 49.7079 6.01721 49.6719 5.87275 49.5999C5.72828 49.5278 5.60944 49.4326 5.51623 49.3143C5.42302 49.1908 5.35545 49.0519 5.31351 48.8975C5.27156 48.738 5.25292 48.5708 5.25758 48.3959H7.9629C7.9722 48.1541 7.95123 47.8994 7.89999 47.6318C7.85336 47.3642 7.76486 47.1173 7.63435 46.8909C7.50852 46.6645 7.33844 46.4793 7.12404 46.3352C6.91432 46.186 6.64868 46.1114 6.32713 46.1114C6.08013 46.1114 5.85178 46.1629 5.64206 46.2658C5.437 46.3686 5.25758 46.5127 5.10379 46.6979C4.95466 46.8832 4.83815 47.1018 4.75427 47.354C4.67038 47.6061 4.62844 47.8839 4.62844 48.1875C4.63775 48.491 4.67737 48.7715 4.74728 49.0287C4.82184 49.286 4.93136 49.5072 5.07583 49.6925C5.2203 49.8777 5.39739 50.0218 5.60711 50.1247C5.82148 50.2275 6.07314 50.279 6.36208 50.279C6.7722 50.279 7.11236 50.1658 7.38269 49.9394C7.65301 49.7131 7.82777 49.376 7.90698 48.9284ZM8.94234 48.9361H8.34815C8.35744 49.1831 8.40407 49.394 8.48796 49.569C8.57184 49.7388 8.68369 49.8777 8.8235 49.9857C8.96331 50.0886 9.12409 50.1633 9.30585 50.2096C9.4876 50.2559 9.67865 50.279 9.87907 50.279C10.0608 50.279 10.2426 50.2584 10.4243 50.2173C10.6108 50.1812 10.7762 50.1144 10.9207 50.0166C11.0698 49.9188 11.1886 49.7902 11.2772 49.6307C11.3704 49.4712 11.417 49.2705 11.417 49.0287C11.417 48.8383 11.382 48.6789 11.3121 48.5502C11.2469 48.4216 11.1583 48.3161 11.0465 48.2338C10.9393 48.1464 10.8135 48.0769 10.669 48.0254C10.5292 47.9739 10.3847 47.9303 10.2356 47.8942C10.0958 47.8582 9.95597 47.8247 9.81616 47.7939C9.67635 47.7578 9.55052 47.7167 9.43867 47.6704C9.32682 47.6189 9.23364 47.5572 9.15905 47.4852C9.08914 47.408 9.05419 47.3128 9.05419 47.1996C9.05419 47.0967 9.07747 47.0144 9.12409 46.9526C9.17072 46.8857 9.23126 46.8343 9.30585 46.7983C9.38044 46.7571 9.46195 46.7288 9.55052 46.7134C9.6437 46.6979 9.73458 46.6902 9.82315 46.6902C9.92101 46.6902 10.0166 46.7031 10.1098 46.7288C10.2076 46.7494 10.2962 46.7854 10.3754 46.8369C10.4546 46.8883 10.5199 46.9578 10.5711 47.0453C10.6224 47.1276 10.6527 47.233 10.662 47.3617H11.2562C11.2422 47.1199 11.1956 46.9192 11.1164 46.7597C11.0372 46.5951 10.93 46.4664 10.7948 46.3738C10.6643 46.276 10.5129 46.2092 10.3404 46.1731C10.168 46.132 9.97925 46.1114 9.77421 46.1114C9.61574 46.1114 9.45496 46.1345 9.29187 46.1809C9.13339 46.222 8.98897 46.2889 8.85845 46.3815C8.73263 46.469 8.62777 46.5847 8.54388 46.7288C8.46468 46.8729 8.42504 47.0452 8.42504 47.2459C8.42504 47.5031 8.48327 47.7038 8.59981 47.8479C8.71634 47.992 8.86076 48.1051 9.03322 48.1875C9.21029 48.2647 9.40141 48.3264 9.60644 48.3727C9.81147 48.4138 10.0002 48.4628 10.1727 48.5194C10.3497 48.5708 10.4965 48.6403 10.6131 48.7277C10.7296 48.8152 10.7878 48.9438 10.7878 49.1136C10.7878 49.2371 10.7599 49.34 10.704 49.4223C10.648 49.4995 10.5758 49.5587 10.4872 49.5999C10.4034 49.641 10.3102 49.6693 10.2076 49.6847C10.1051 49.7002 10.0072 49.7079 9.91402 49.7079C9.79288 49.7079 9.67404 49.695 9.55751 49.6693C9.44566 49.6436 9.34311 49.6024 9.24992 49.5458C9.16136 49.4841 9.08914 49.4044 9.03322 49.3066C8.97729 49.2037 8.94703 49.0802 8.94234 48.9361ZM12.7032 45.4862V44.6836H12.109V45.4862H12.7032ZM12.109 46.204V50.1941H12.7032V46.204H12.109ZM16.7415 49.8545V46.204H16.1823V46.7751H16.1753C16.0681 46.5539 15.9189 46.3892 15.7279 46.2812C15.5368 46.168 15.3271 46.1114 15.0988 46.1114C14.7865 46.1114 14.5232 46.1783 14.3088 46.3121C14.0944 46.4407 13.922 46.6079 13.7915 46.8137C13.661 47.0144 13.5678 47.2407 13.5119 47.4929C13.456 47.7399 13.428 47.9817 13.428 48.2184C13.428 48.491 13.4607 48.7509 13.5259 48.9979C13.5958 49.2397 13.6983 49.4532 13.8335 49.6384C13.9686 49.8185 14.1364 49.9626 14.3368 50.0706C14.5372 50.1787 14.7725 50.2327 15.0428 50.2327C15.2758 50.2327 15.4949 50.1761 15.6999 50.0629C15.9096 49.9446 16.0657 49.7619 16.1683 49.515H16.1823V49.7774C16.1823 49.9986 16.1613 50.2018 16.1194 50.3871C16.0821 50.5723 16.0192 50.7292 15.9306 50.8579C15.8421 50.9916 15.7302 51.0946 15.5951 51.1666C15.46 51.2437 15.2945 51.2823 15.0988 51.2823C15.0009 51.2823 14.8983 51.2694 14.7912 51.2437C14.684 51.2231 14.5838 51.1872 14.4906 51.1357C14.402 51.0842 14.3251 51.0174 14.2599 50.935C14.1993 50.8527 14.1667 50.7523 14.162 50.634H13.5678C13.5771 50.8501 13.6284 51.0328 13.7216 51.182C13.8148 51.3312 13.9313 51.4521 14.0711 51.5447C14.2156 51.6374 14.374 51.7043 14.5465 51.7454C14.7236 51.7865 14.896 51.8071 15.0638 51.8071C15.6417 51.8071 16.0657 51.6451 16.3361 51.3209C16.6064 50.9968 16.7415 50.508 16.7415 49.8545ZM15.0778 49.6616C14.882 49.6616 14.719 49.6178 14.5884 49.5304C14.4579 49.4378 14.3531 49.3195 14.2739 49.1754C14.1947 49.0262 14.1387 48.8615 14.1061 48.6814C14.0735 48.5014 14.0572 48.3212 14.0572 48.1412C14.0572 47.9508 14.0758 47.7682 14.1131 47.5932C14.155 47.4183 14.2179 47.2639 14.3018 47.1301C14.3904 46.9964 14.5023 46.8909 14.6374 46.8137C14.7725 46.7314 14.9357 46.6902 15.1267 46.6902C15.3131 46.6902 15.4716 46.7314 15.6021 46.8137C15.7326 46.8961 15.8374 47.0067 15.9166 47.1456C16.0005 47.2793 16.0611 47.4311 16.0984 47.6009C16.1357 47.7707 16.1543 47.9431 16.1543 48.118C16.1543 48.3033 16.1333 48.4885 16.0914 48.6737C16.0541 48.8589 15.9935 49.0262 15.9097 49.1754C15.8258 49.3195 15.7139 49.4378 15.5741 49.5304C15.439 49.6178 15.2735 49.6616 15.0778 49.6616ZM17.6378 46.204V50.1941H18.232V47.9405C18.232 47.7605 18.253 47.5958 18.295 47.4466C18.3416 47.2922 18.4091 47.1585 18.4977 47.0453C18.5863 46.932 18.6957 46.8446 18.8262 46.7828C18.9614 46.7211 19.1198 46.6902 19.3016 46.6902C19.53 46.6902 19.7093 46.7622 19.8399 46.9063C19.9704 47.0504 20.0356 47.2459 20.0356 47.4929V50.1941H20.6298V47.5701C20.6298 47.354 20.6088 47.1585 20.5669 46.9835C20.5296 46.8035 20.462 46.6491 20.3641 46.5204C20.2663 46.3918 20.1381 46.2915 19.9797 46.2194C19.8212 46.1474 19.6232 46.1114 19.3855 46.1114C18.8495 46.1114 18.458 46.3532 18.2111 46.8369H18.1971V46.204H17.6378ZM23.4888 44.6836V50.1941H24.083V49.6616H24.0969C24.1622 49.7799 24.2414 49.8802 24.3346 49.9626C24.4325 50.0398 24.535 50.1015 24.6422 50.1478C24.7494 50.1941 24.8566 50.2275 24.9638 50.2481C25.0756 50.2688 25.1759 50.279 25.2644 50.279C25.5394 50.279 25.7794 50.225 25.9844 50.1169C26.1941 50.0089 26.3666 49.8623 26.5017 49.677C26.6415 49.4866 26.744 49.2654 26.8093 49.0133C26.8792 48.7612 26.9141 48.4937 26.9141 48.2106C26.9141 47.9276 26.8792 47.6601 26.8093 47.408C26.7394 47.1558 26.6345 46.9347 26.4947 46.7443C26.3596 46.5488 26.1871 46.3944 25.9774 46.2812C25.7724 46.168 25.53 46.1114 25.2504 46.1114C24.9987 46.1114 24.768 46.1629 24.5583 46.2658C24.3486 46.3635 24.1948 46.523 24.0969 46.7443H24.083V44.6836H23.4888ZM26.285 48.1643C26.285 48.3598 26.2664 48.5502 26.2291 48.7355C26.1918 48.9207 26.1312 49.0853 26.0473 49.2294C25.9634 49.3735 25.8516 49.4893 25.7118 49.5767C25.5766 49.6641 25.4065 49.7079 25.2014 49.7079C24.9964 49.7079 24.8217 49.6668 24.6772 49.5844C24.5327 49.497 24.4139 49.3838 24.3206 49.2448C24.2321 49.1059 24.1669 48.9464 24.1249 48.7663C24.083 48.5811 24.062 48.3907 24.062 48.1952C24.062 48.01 24.0807 47.8273 24.1179 47.6472C24.1599 47.4672 24.2252 47.3077 24.3137 47.1687C24.4022 47.0246 24.5164 46.9089 24.6562 46.8214C24.796 46.734 24.9661 46.6902 25.1665 46.6902C25.3576 46.6902 25.523 46.7314 25.6628 46.8137C25.8073 46.8961 25.9238 47.0067 26.0123 47.1456C26.1056 47.2845 26.1731 47.444 26.2151 47.6241C26.2617 47.7991 26.285 47.9791 26.285 48.1643ZM29.0307 50.7267C28.9608 50.9221 28.8909 51.0868 28.821 51.2206C28.7557 51.3543 28.6812 51.4624 28.5973 51.5447C28.518 51.6322 28.4272 51.6939 28.3247 51.73C28.2268 51.7711 28.1126 51.7917 27.9821 51.7917C27.9122 51.7917 27.8423 51.7865 27.7724 51.7763C27.7025 51.766 27.6349 51.748 27.5697 51.7223V51.1203C27.6209 51.146 27.6792 51.1666 27.7445 51.182C27.8144 51.2026 27.8726 51.2129 27.9192 51.2129C28.0404 51.2129 28.1405 51.1795 28.2198 51.1125C28.3037 51.0508 28.3666 50.9607 28.4086 50.8424L28.6532 50.171L27.2202 46.204H27.8913L28.9468 49.4686H28.9608L29.9744 46.204H30.6036L29.0307 50.7267Z" fill="white"/>
</svg>
