<svg width="54" height="53" viewBox="0 0 54 53" fill="none" xmlns="http://www.w3.org/2000/svg">
<path d="M49.7417 19.1342L52.4832 25.6468C53.5864 28.2672 53.0031 29.9181 50.1142 29.9181H49.4232L52.4832 37.1877C53.5864 39.8082 53.0031 41.4591 50.1142 41.4591H49.4232L52.4832 48.7286C53.5864 51.3491 53.0031 53 50.1142 53H2.91527C0.016366 53 -0.598341 51.5109 0.534088 48.8205L3.63265 41.4592H2.91496C0.0160528 41.4592 -0.598654 39.9701 0.533776 37.2796L3.63234 29.9183H2.91465C0.0157403 29.9183 -0.598967 28.4293 0.533463 25.7388L3.31349 19.1344H2.91465C0.0157403 19.1344 -0.598967 17.6453 0.533463 14.9549L5.29953 3.6325C6.36721 1.09129 6.86749 0 9.70572 0H43.3222C46.1303 0 46.5677 0.812126 47.6357 3.3496L52.4826 14.8635C53.5858 17.484 53.0025 19.1349 50.1136 19.1349H49.7411L49.7417 19.1342ZM50.1601 27.5477C50.202 27.6699 50.145 27.8062 50.0324 27.8517C49.9198 27.8973 49.7946 27.835 49.7528 27.7125L49.5628 27.1603C49.521 27.0381 49.578 26.9018 49.6906 26.8563C49.8032 26.8107 49.9283 26.8729 49.9702 26.9955L50.1601 27.5477ZM47.9286 27.5551C47.9667 27.6791 47.9052 27.8132 47.7912 27.8547C47.6771 27.8962 47.5542 27.8295 47.516 27.7054L47.346 27.1533C47.3079 27.0292 47.3694 26.8952 47.4834 26.8537C47.5975 26.8122 47.7204 26.8789 47.7586 27.0029L47.9286 27.5551ZM45.697 27.5636C45.731 27.6891 45.6648 27.8206 45.5496 27.8576C45.4344 27.8947 45.3133 27.8228 45.2792 27.6973L45.1296 27.1451C45.0956 27.0196 45.1618 26.8881 45.277 26.8511C45.3922 26.8141 45.5133 26.8859 45.5474 27.0114L45.697 27.5636ZM43.4654 27.5721C43.495 27.6991 43.4243 27.8284 43.3076 27.8606C43.191 27.8928 43.0721 27.8162 43.0425 27.6891L42.9129 27.137C42.8832 27.01 42.954 26.8807 43.0706 26.8485C43.1873 26.8163 43.3061 26.8929 43.3358 27.02L43.4654 27.5721ZM41.2327 27.5814C41.2575 27.7095 41.1823 27.835 41.0649 27.8624C40.9471 27.8895 40.8316 27.8076 40.8068 27.6799L40.6972 27.1277C40.6724 26.9996 40.7475 26.874 40.8649 26.8466C40.9827 26.8196 41.0982 26.9015 41.1231 27.0292L41.2327 27.5814ZM39 27.5899C39.0207 27.7188 38.9414 27.8417 38.8226 27.8643C38.7041 27.8869 38.5911 27.8006 38.5704 27.6714L38.4811 27.1192C38.4604 26.9903 38.5396 26.8674 38.6585 26.8448C38.777 26.8222 38.89 26.9085 38.9107 27.0377L39 27.5899ZM36.7665 27.5991C36.7824 27.7288 36.6991 27.848 36.5798 27.8654C36.4606 27.8828 36.3513 27.7921 36.335 27.6625L36.2658 27.1103C36.2499 26.9807 36.3332 26.8615 36.4524 26.8441C36.5717 26.8266 36.6809 26.9174 36.6972 27.047L36.7665 27.5991ZM34.533 27.6084C34.5445 27.7384 34.4567 27.8539 34.3371 27.8662C34.2175 27.8784 34.1116 27.7828 34.1001 27.6529L34.0508 27.1007C34.0393 26.9707 34.1275 26.8552 34.2467 26.8429C34.3663 26.8307 34.4723 26.9263 34.4837 27.0563L34.533 27.6084ZM32.2995 27.6177C32.3062 27.7484 32.214 27.8599 32.094 27.8673C31.974 27.8743 31.8714 27.7743 31.8647 27.644L31.8359 27.0918C31.8292 26.9611 31.9214 26.8496 32.0414 26.8422C32.1614 26.8352 32.264 26.9352 32.2706 27.0655L32.2995 27.6177ZM30.0654 27.6269C30.0672 27.7576 29.9713 27.865 29.8513 27.8669C29.7313 27.8691 29.6325 27.7647 29.6306 27.6343L29.6217 27.0822C29.6199 26.9514 29.7158 26.8441 29.8358 26.8422C29.9557 26.84 30.0546 26.9444 30.0565 27.0748L30.0654 27.6269ZM27.8312 27.6354C27.829 27.7662 27.7298 27.8699 27.6098 27.8673C27.4898 27.8647 27.3942 27.7569 27.3968 27.6262L27.4079 27.074C27.4102 26.9433 27.5094 26.8396 27.6294 26.8422C27.7494 26.8448 27.8449 26.9526 27.8423 27.0833L27.8312 27.6354ZM25.5971 27.6447C25.59 27.7754 25.4871 27.875 25.3671 27.8673C25.2471 27.8595 25.1556 27.7477 25.1627 27.6169L25.1942 27.0648C25.2012 26.934 25.3042 26.8344 25.4241 26.8422C25.5441 26.85 25.6356 26.9618 25.6286 27.0925L25.5971 27.6447ZM23.3618 27.654C23.3499 27.7839 23.2437 27.8791 23.1241 27.8662C23.0044 27.8532 22.917 27.7376 22.9289 27.6073L22.9804 27.0551C22.9922 26.9252 23.0985 26.83 23.2181 26.8429C23.3377 26.8559 23.4251 26.9714 23.4133 27.1018L23.3618 27.654ZM21.1265 27.6632C21.1102 27.7928 21.0002 27.8832 20.881 27.8654C20.7617 27.8476 20.6788 27.728 20.6951 27.5984L20.7666 27.0462C20.7829 26.9166 20.8928 26.8263 21.0121 26.8441C21.1313 26.8618 21.2143 26.9814 21.198 27.1111L21.1261 27.6632H21.1265ZM18.8905 27.6725C18.8694 27.801 18.7564 27.8865 18.6383 27.8636C18.5201 27.8406 18.4416 27.7176 18.4627 27.5891L18.5546 27.037C18.5757 26.9085 18.6886 26.8229 18.8068 26.8459C18.9249 26.8689 19.0034 26.9918 18.9823 27.1203L18.8905 27.6725ZM16.6544 27.6817C16.6285 27.8091 16.5126 27.8899 16.3952 27.8617C16.2778 27.8336 16.2041 27.7073 16.23 27.5799L16.3419 27.0277C16.3678 26.9003 16.4837 26.8196 16.6011 26.8478C16.7185 26.8759 16.7922 27.0022 16.7666 27.1296L16.6548 27.6817H16.6544ZM14.4184 27.6902C14.3884 27.8169 14.2695 27.8928 14.1532 27.8599C14.037 27.8273 13.967 27.698 13.9973 27.5714L14.1292 27.0192C14.1592 26.8926 14.278 26.8167 14.3943 26.8496C14.5106 26.8822 14.5806 27.0114 14.5502 27.1381L14.4184 27.6902ZM12.1824 27.6988C12.1479 27.8243 12.0268 27.8958 11.9113 27.8584C11.7961 27.821 11.7302 27.6891 11.7646 27.5636L11.9168 27.0114C11.9513 26.8859 12.0724 26.8144 12.1879 26.8518C12.3031 26.8892 12.369 27.0211 12.3346 27.1466L12.1824 27.6988ZM9.94556 27.7073C9.90705 27.8313 9.78336 27.8976 9.66929 27.8558C9.55524 27.8139 9.4945 27.6791 9.53301 27.5554L9.70522 27.0033C9.74373 26.8792 9.86741 26.8129 9.98148 26.8548C10.0956 26.8966 10.1563 27.0314 10.1178 27.1551L9.94556 27.7073ZM7.70876 27.7147C7.66655 27.8369 7.54101 27.8991 7.42843 27.8528C7.31585 27.8069 7.25919 27.6702 7.30141 27.5477L7.49398 26.9955C7.53619 26.8733 7.66173 26.8111 7.77431 26.8574C7.88689 26.9033 7.94355 27.04 7.90133 27.1625L7.70876 27.7147ZM5.47197 27.7221C5.42568 27.8428 5.29829 27.9002 5.18719 27.8502C5.07609 27.7999 5.0235 27.6614 5.06942 27.5406L5.28199 26.9885C5.32828 26.8678 5.45567 26.8104 5.56677 26.8603C5.67787 26.9107 5.73046 27.0492 5.68454 27.1699L5.47197 27.7221ZM3.23413 27.7295C3.18413 27.8484 3.05526 27.9006 2.94601 27.8462C2.83676 27.7917 2.78861 27.6517 2.83861 27.5329L3.07118 26.9807C3.12117 26.8618 3.25004 26.8096 3.3593 26.864C3.46854 26.9185 3.51669 27.0585 3.46669 27.1773L3.23413 27.7295ZM15.9122 50.1108C15.6252 50.1108 15.6252 49.636 15.9122 49.636H17.9905C18.2775 49.636 18.2775 50.1108 17.9905 50.1108H15.9122ZM6.00998 50.1108C5.72298 50.1108 5.72298 49.636 6.00998 49.636H13.9305C14.2175 49.636 14.2175 50.1108 13.9305 50.1108H6.00998ZM11.2416 2.84733C10.9546 2.84733 10.9546 2.37257 11.2416 2.37257H18.7233C19.0103 2.37257 19.0103 2.84733 18.7233 2.84733H11.2416ZM36.1854 16.0838C36.3058 16.0838 36.4035 16.1901 36.4035 16.3212C36.4035 16.4523 36.3058 16.5586 36.1854 16.5586H34.1071C33.9868 16.5586 33.889 16.4523 33.889 16.3212C33.889 16.1901 33.9868 16.0838 34.1071 16.0838H36.1854ZM46.0877 16.0838C46.208 16.0838 46.3058 16.1901 46.3058 16.3212C46.3058 16.4523 46.208 16.5586 46.0877 16.5586H38.1671C38.0467 16.5586 37.949 16.4523 37.949 16.3212C37.949 16.1901 38.0467 16.0838 38.1671 16.0838H46.0877ZM49.5532 25.2386C49.5951 25.3608 49.538 25.4971 49.4254 25.5427C49.3129 25.5882 49.1877 25.526 49.1458 25.4034L48.9607 24.8657C48.9188 24.7435 48.9759 24.6072 49.0885 24.5617C49.201 24.5161 49.3262 24.5783 49.368 24.7009L49.5532 25.2386ZM47.3794 25.246C47.4175 25.3701 47.356 25.5042 47.242 25.5456C47.1279 25.5871 47.005 25.5205 46.9668 25.3964L46.8013 24.8587C46.7631 24.7346 46.8246 24.6006 46.9387 24.5591C47.0527 24.5176 47.1757 24.5843 47.2138 24.7083L47.3794 25.246ZM45.2055 25.2546C45.2396 25.3801 45.1733 25.5116 45.0581 25.5486C44.943 25.5856 44.8218 25.5138 44.7878 25.3882L44.6419 24.8505C44.6078 24.725 44.6741 24.5935 44.7893 24.5565C44.9044 24.5195 45.0255 24.5913 45.0596 24.7168L45.2055 25.2546ZM43.0317 25.2631C43.0613 25.3901 42.9906 25.5193 42.8739 25.5516C42.7572 25.5838 42.6384 25.5071 42.6087 25.3801L42.4825 24.8424C42.4528 24.7154 42.5236 24.5861 42.6402 24.5539C42.7569 24.5217 42.8758 24.5983 42.9054 24.7254L43.0317 25.2631ZM40.8571 25.2723C40.8819 25.4005 40.8067 25.526 40.6893 25.5534C40.5715 25.5804 40.456 25.4986 40.4312 25.3708L40.3245 24.8331C40.2997 24.705 40.3749 24.5794 40.4923 24.552C40.61 24.525 40.7256 24.6068 40.7504 24.7346L40.8571 25.2723ZM38.6825 25.2808C38.7032 25.4097 38.6239 25.5327 38.5051 25.5553C38.3866 25.5778 38.2736 25.4916 38.2529 25.3623L38.1658 24.8246C38.1451 24.6957 38.2243 24.5728 38.3432 24.5502C38.4617 24.5276 38.5747 24.6139 38.5954 24.7431L38.6825 25.2808ZM36.5068 25.2901C36.5227 25.4197 36.4394 25.539 36.3202 25.5564C36.2009 25.5738 36.0917 25.483 36.0754 25.3534L36.008 24.8157C35.992 24.6861 36.0754 24.5669 36.1946 24.5495C36.3139 24.532 36.4231 24.6228 36.4394 24.7524L36.5068 25.2901ZM34.3312 25.2994C34.3423 25.4293 34.2545 25.5449 34.1353 25.5571C34.0156 25.5693 33.9097 25.4738 33.8982 25.3438L33.8505 24.8061C33.839 24.6761 33.9268 24.5606 34.0464 24.5483C34.166 24.5361 34.2719 24.6317 34.2834 24.7616L34.3312 25.2994ZM32.1555 25.3086C32.1622 25.4393 32.07 25.5508 31.95 25.5582C31.83 25.5653 31.7274 25.4653 31.7207 25.3349L31.6926 24.7972C31.6859 24.6665 31.7781 24.555 31.8981 24.5476C32.0181 24.5406 32.1207 24.6405 32.1274 24.7709L32.1555 25.3086ZM29.9791 25.3179C29.9809 25.4486 29.885 25.556 29.765 25.5578C29.6451 25.5601 29.5462 25.4556 29.5443 25.3253L29.5358 24.7876C29.534 24.6568 29.6299 24.5494 29.7499 24.5476C29.8698 24.5454 29.9687 24.6498 29.9706 24.7802L29.9791 25.3179ZM27.8027 25.3264C27.8005 25.4571 27.7012 25.5608 27.5812 25.5582C27.4613 25.5556 27.3657 25.4479 27.3683 25.3171L27.3794 24.7794C27.3816 24.6487 27.4809 24.545 27.6009 24.5476C27.7208 24.5502 27.8164 24.658 27.8138 24.7887L27.8027 25.3264ZM25.6263 25.3357C25.6192 25.4664 25.5163 25.566 25.3963 25.5582C25.2763 25.5505 25.1848 25.4386 25.1919 25.3079L25.2226 24.7702C25.2297 24.6394 25.3326 24.5398 25.4526 24.5476C25.5726 24.5554 25.6641 24.6672 25.657 24.7979L25.6263 25.3357ZM23.4491 25.3449C23.4373 25.4749 23.331 25.5701 23.2114 25.5571C23.0917 25.5442 23.0044 25.4286 23.0162 25.2983L23.0666 24.7605C23.0784 24.6305 23.1847 24.5354 23.3043 24.5483C23.4239 24.5613 23.5113 24.6768 23.4995 24.8072L23.4491 25.3449ZM21.2719 25.3542C21.2557 25.4838 21.1457 25.5741 21.0264 25.5564C20.9072 25.5386 20.8242 25.419 20.8405 25.2894L20.9101 24.7516C20.9264 24.622 21.0364 24.5317 21.1557 24.5494C21.2749 24.5672 21.3579 24.6868 21.3416 24.8165L21.2719 25.3542ZM19.0936 25.3634C19.0725 25.4919 18.9596 25.5775 18.8414 25.5545C18.7233 25.5316 18.6448 25.4086 18.6659 25.2801L18.7552 24.7424C18.7763 24.6139 18.8892 24.5283 19.0074 24.5513C19.1255 24.5743 19.204 24.6972 19.1829 24.8257L19.0936 25.3634ZM16.9153 25.3727C16.8894 25.5001 16.7735 25.5808 16.6561 25.5527C16.5387 25.5245 16.465 25.3982 16.4906 25.2708L16.5994 24.7331C16.6254 24.6057 16.7413 24.525 16.8587 24.5531C16.9761 24.5813 17.0498 24.7076 17.0238 24.835L16.915 25.3727H16.9153ZM14.737 25.3812C14.707 25.5079 14.5882 25.5838 14.4719 25.5508C14.3556 25.5182 14.2856 25.389 14.316 25.2623L14.4445 24.7246C14.4745 24.598 14.5934 24.522 14.7096 24.555C14.8259 24.5876 14.8959 24.7168 14.8655 24.8435L14.737 25.3812ZM12.5587 25.3897C12.5243 25.5153 12.4032 25.5867 12.2876 25.5493C12.1725 25.5119 12.1066 25.3801 12.141 25.2546L12.2891 24.7168C12.3236 24.5913 12.4447 24.5198 12.5602 24.5572C12.6754 24.5946 12.7413 24.7265 12.7069 24.852L12.5587 25.3897ZM10.3798 25.3982C10.3412 25.5223 10.2176 25.5886 10.1035 25.5467C9.98944 25.5049 9.9287 25.3701 9.96721 25.2464L10.135 24.7087C10.1735 24.5846 10.2972 24.5183 10.4112 24.5602C10.5253 24.602 10.586 24.7368 10.5475 24.8605L10.3798 25.3982ZM8.2008 25.4056C8.15858 25.5279 8.03304 25.5901 7.92046 25.5438C7.80788 25.4979 7.75122 25.3612 7.79344 25.2386L7.98083 24.7009C8.02305 24.5787 8.14859 24.5165 8.26117 24.5628C8.37375 24.6087 8.43041 24.7453 8.38818 24.8679L8.2008 25.4056ZM6.02183 25.4131C5.97554 25.5338 5.84815 25.5912 5.73705 25.5412C5.62595 25.4908 5.57336 25.3523 5.61928 25.2316L5.8263 24.6939C5.87259 24.5732 5.99998 24.5158 6.11108 24.5657C6.22218 24.6161 6.27476 24.7546 6.22884 24.8753L6.02183 25.4131ZM3.8421 25.4205C3.79211 25.5393 3.66324 25.5916 3.55398 25.5371C3.44474 25.4827 3.39659 25.3427 3.44659 25.2238L3.67323 24.6861C3.72322 24.5672 3.85209 24.515 3.96135 24.5694C4.07059 24.6239 4.11874 24.7639 4.06874 24.8827L3.8421 25.4205ZM48.7022 22.9748C48.7441 23.097 48.6871 23.2333 48.5745 23.2788C48.4619 23.3244 48.3367 23.2622 48.2949 23.1396L48.1168 22.6219C48.0749 22.4997 48.1319 22.3634 48.2445 22.3179C48.3571 22.2723 48.4823 22.3345 48.5241 22.4571L48.7022 22.9748ZM46.6096 22.9822C46.6477 23.1063 46.5862 23.2403 46.4722 23.2818C46.3581 23.3233 46.2352 23.2566 46.197 23.1326L46.0378 22.6149C45.9996 22.4908 46.0611 22.3567 46.1752 22.3153C46.2892 22.2738 46.4122 22.3404 46.4503 22.4645L46.6096 22.9822ZM44.5169 22.9907C44.5509 23.1163 44.4846 23.2477 44.3695 23.2848C44.2543 23.3218 44.1332 23.25 44.0991 23.1244L43.9588 22.6067C43.9247 22.4812 43.991 22.3497 44.1062 22.3127C44.2213 22.2756 44.3424 22.3475 44.3765 22.473L44.5169 22.9907ZM42.4242 22.9993C42.4538 23.1263 42.3831 23.2555 42.2664 23.2877C42.1497 23.32 42.0309 23.2433 42.0012 23.1163L41.8798 22.5986C41.8502 22.4715 41.9209 22.3423 42.0375 22.3101C42.1542 22.2779 42.2731 22.3545 42.3027 22.4815L42.4242 22.9993ZM40.3303 23.0085C40.3551 23.1366 40.28 23.2622 40.1626 23.2896C40.0448 23.3166 39.9293 23.2348 39.9044 23.107L39.8019 22.5893C39.7771 22.4612 39.8522 22.3356 39.9696 22.3082C40.0874 22.2812 40.2029 22.363 40.2277 22.4908L40.3303 23.0085ZM38.2365 23.017C38.2572 23.1459 38.178 23.2688 38.0591 23.2914C37.9406 23.314 37.8277 23.2277 37.8069 23.0985L37.7232 22.5808C37.7025 22.4519 37.7817 22.329 37.9006 22.3064C38.0191 22.2838 38.1321 22.3701 38.1528 22.4993L38.2365 23.017ZM36.1419 23.0263C36.1578 23.1559 36.0745 23.2751 35.9553 23.2926C35.836 23.31 35.7268 23.2192 35.7105 23.0896L35.6457 22.5719C35.6297 22.4423 35.7131 22.323 35.8323 22.3056C35.9516 22.2882 36.0608 22.379 36.0771 22.5086L36.1419 23.0263ZM34.0473 23.0355C34.0588 23.1655 33.9707 23.2811 33.8514 23.2933C33.7318 23.3055 33.6259 23.21 33.6144 23.08L33.5685 22.5623C33.557 22.4323 33.6451 22.3168 33.7644 22.3045C33.884 22.2923 33.9899 22.3878 34.0014 22.5178L34.0473 23.0355ZM31.9527 23.0448C31.9594 23.1755 31.8672 23.287 31.7472 23.2944C31.6272 23.3014 31.5246 23.2015 31.5179 23.0711L31.4909 22.5534C31.4842 22.4227 31.5765 22.3112 31.6964 22.3038C31.8164 22.2967 31.919 22.3967 31.9257 22.5271L31.9527 23.0448ZM29.8574 23.0541C29.8592 23.1848 29.7633 23.2922 29.6433 23.294C29.5233 23.2963 29.4245 23.1918 29.4226 23.0615L29.4145 22.5438C29.4126 22.413 29.5085 22.3056 29.6285 22.3038C29.7485 22.3016 29.8474 22.406 29.8492 22.5363L29.8574 23.0541ZM27.762 23.0626C27.7598 23.1933 27.6605 23.297 27.5406 23.2944C27.4206 23.2918 27.325 23.184 27.3276 23.0533L27.3384 22.5356C27.3406 22.4049 27.4398 22.3012 27.5598 22.3038C27.6798 22.3064 27.7753 22.4141 27.7728 22.5449L27.762 23.0626ZM25.6667 23.0718C25.6596 23.2026 25.5567 23.3022 25.4367 23.2944C25.3167 23.2866 25.2252 23.1748 25.2323 23.0441L25.2619 22.5264C25.2689 22.3956 25.3719 22.296 25.4919 22.3038C25.6119 22.3116 25.7033 22.4234 25.6963 22.5541L25.6667 23.0718ZM23.5703 23.0811C23.5584 23.2111 23.4521 23.3063 23.3325 23.2933C23.2129 23.2803 23.1255 23.1648 23.1374 23.0344L23.1859 22.5167C23.1977 22.3867 23.304 22.2916 23.4236 22.3045C23.5432 22.3175 23.6306 22.433 23.6188 22.5634L23.5706 23.0811H23.5703ZM21.4739 23.0904C21.4576 23.22 21.3476 23.3103 21.2284 23.2926C21.1091 23.2748 21.0262 23.1552 21.0425 23.0255L21.1095 22.5078C21.1258 22.3782 21.2358 22.2879 21.355 22.3056C21.4743 22.3234 21.5572 22.443 21.5409 22.5726L21.4739 23.0904ZM19.3767 23.0996C19.3556 23.2281 19.2427 23.3137 19.1245 23.2907C19.0064 23.2677 18.9279 23.1448 18.949 23.0163L19.0349 22.4986C19.056 22.3701 19.169 22.2845 19.2871 22.3075C19.4052 22.3305 19.4837 22.4534 19.4626 22.5819L19.3767 23.0996ZM17.2796 23.1089C17.2537 23.2363 17.1377 23.317 17.0203 23.2888C16.9033 23.2607 16.8293 23.1344 16.8552 23.007L16.96 22.4893C16.9859 22.3619 17.1018 22.2812 17.2192 22.3093C17.3362 22.3375 17.4103 22.4638 17.3844 22.5912L17.2796 23.1089ZM15.1824 23.1174C15.1524 23.244 15.0336 23.32 14.9173 23.287C14.801 23.2544 14.731 23.1252 14.7614 22.9985L14.8851 22.4808C14.915 22.3542 15.0339 22.2782 15.1502 22.3112C15.2665 22.3438 15.3365 22.473 15.3061 22.5997L15.1824 23.1174ZM13.0853 23.1259C13.0508 23.2514 12.9297 23.3229 12.8142 23.2855C12.699 23.2481 12.6331 23.1163 12.6675 22.9907L12.8101 22.473C12.8446 22.3475 12.9656 22.276 13.0812 22.3134C13.1964 22.3508 13.2623 22.4827 13.2278 22.6082L13.0853 23.1259ZM10.9874 23.1344C10.9488 23.2585 10.8252 23.3248 10.7111 23.2829C10.597 23.2411 10.5363 23.1063 10.5748 22.9826L10.7363 22.4649C10.7748 22.3408 10.8985 22.2745 11.0125 22.3164C11.1266 22.3582 11.1873 22.493 11.1488 22.6167L10.9874 23.1344ZM8.88945 23.1418C8.84723 23.264 8.72169 23.3263 8.60912 23.28C8.49654 23.234 8.43987 23.0974 8.4821 22.9748L8.66244 22.4571C8.70466 22.3349 8.8302 22.2727 8.94278 22.319C9.05536 22.3649 9.11202 22.5015 9.06979 22.6241L8.88945 23.1418ZM6.79154 23.1492C6.74525 23.27 6.61786 23.3274 6.50676 23.277C6.39566 23.227 6.34307 23.0881 6.38899 22.9674L6.58823 22.4497C6.63452 22.329 6.76191 22.2716 6.87301 22.3216C6.98411 22.3716 7.0367 22.5104 6.99078 22.6312L6.79154 23.1489V23.1492ZM4.69249 23.1566C4.6425 23.2755 4.51362 23.3277 4.40437 23.2733C4.29513 23.2189 4.24698 23.0789 4.29698 22.96L4.5151 22.4423C4.5651 22.3234 4.69397 22.2712 4.80322 22.3256C4.91247 22.3801 4.96061 22.5201 4.91061 22.6389L4.69249 23.1566ZM47.9163 20.7628C47.9582 20.8851 47.9011 21.0213 47.7886 21.0669C47.676 21.1124 47.5508 21.0502 47.509 20.9276L47.3371 20.4284C47.2953 20.3062 47.3523 20.1699 47.4649 20.1244C47.5775 20.0789 47.7027 20.1411 47.7445 20.2637L47.9163 20.7628ZM45.8984 20.7703C45.9366 20.8943 45.8751 21.0284 45.761 21.0699C45.647 21.1113 45.524 21.0447 45.4859 20.9206L45.3322 20.4214C45.2941 20.2974 45.3555 20.1633 45.4696 20.1218C45.5837 20.0803 45.7066 20.147 45.7447 20.2711L45.8984 20.7703ZM43.8805 20.7788C43.9146 20.9043 43.8483 21.0358 43.7331 21.0728C43.618 21.1098 43.4969 21.038 43.4628 20.9125L43.3273 20.4133C43.2932 20.2877 43.3595 20.1563 43.4747 20.1192C43.5898 20.0822 43.7109 20.154 43.745 20.2796L43.8805 20.7788ZM41.8626 20.7873C41.8923 20.9143 41.8215 21.0436 41.7049 21.0758C41.5882 21.108 41.4693 21.0313 41.4397 20.9043L41.3227 20.4051C41.2931 20.2781 41.3638 20.1489 41.4805 20.1166C41.5971 20.0844 41.716 20.1611 41.7456 20.2881L41.8626 20.7873ZM39.844 20.7965C39.8688 20.9247 39.7936 21.0502 39.6762 21.0776C39.5585 21.1047 39.4429 21.0228 39.4181 20.8951L39.3192 20.3959C39.2944 20.2677 39.3696 20.1422 39.487 20.1148C39.6047 20.0877 39.7203 20.1696 39.7451 20.2974L39.844 20.7965ZM37.825 20.8051C37.8457 20.9339 37.7664 21.0569 37.6476 21.0795C37.5291 21.1021 37.4161 21.0158 37.3954 20.8865L37.3146 20.3873C37.2939 20.2585 37.3731 20.1355 37.492 20.1129C37.6105 20.0903 37.7235 20.1766 37.7442 20.3059L37.825 20.8051ZM35.8052 20.8143C35.8211 20.9439 35.7378 21.0632 35.6185 21.0806C35.4993 21.098 35.39 21.0073 35.3737 20.8777L35.3111 20.3785C35.2952 20.2488 35.3785 20.1296 35.4978 20.1122C35.617 20.0948 35.7263 20.1855 35.7426 20.3151L35.8052 20.8143ZM33.7854 20.8236C33.7968 20.9536 33.7087 21.0691 33.5895 21.0813C33.4699 21.0936 33.3639 20.998 33.3525 20.868L33.308 20.3688C33.2969 20.2388 33.3847 20.1233 33.5039 20.1111C33.6235 20.0989 33.7294 20.1944 33.7409 20.3244L33.7854 20.8236ZM31.7656 20.8328C31.7722 20.9636 31.68 21.075 31.56 21.0824C31.4401 21.0895 31.3375 20.9895 31.3308 20.8591L31.3045 20.3599C31.2978 20.2292 31.3901 20.1177 31.51 20.1103C31.63 20.1033 31.7326 20.2033 31.7393 20.3336L31.7656 20.8328ZM29.7451 20.8421C29.747 20.9728 29.6511 21.0802 29.5311 21.0821C29.4111 21.0843 29.3122 20.9799 29.3104 20.8495L29.3022 20.3503C29.3004 20.2196 29.3963 20.1122 29.5163 20.1103C29.6362 20.1081 29.7351 20.2125 29.737 20.3429L29.7451 20.8421ZM27.7247 20.8506C27.7224 20.9813 27.6232 21.085 27.5032 21.0824C27.3832 21.0798 27.2877 20.9721 27.2903 20.8414L27.3006 20.3422C27.3029 20.2114 27.4021 20.1077 27.5221 20.1103C27.6421 20.1129 27.7376 20.2207 27.735 20.3514L27.7247 20.8506ZM25.7042 20.8599C25.6972 20.9906 25.5942 21.0902 25.4742 21.0824C25.3542 21.0747 25.2628 20.9628 25.2698 20.8321L25.2983 20.3329C25.3054 20.2022 25.4083 20.1026 25.5283 20.1103C25.6483 20.1181 25.7398 20.23 25.7327 20.3607L25.7042 20.8599ZM23.683 20.8691C23.6711 20.9991 23.5649 21.0943 23.4452 21.0813C23.3256 21.0684 23.2382 20.9528 23.2501 20.8225L23.2967 20.3233C23.3086 20.1933 23.4149 20.0981 23.5345 20.1111C23.6541 20.124 23.7415 20.2396 23.7297 20.3699L23.683 20.8691ZM21.6618 20.8784C21.6455 21.008 21.5355 21.0984 21.4163 21.0806C21.297 21.0628 21.2141 20.9432 21.2304 20.8136L21.2952 20.3144C21.3115 20.1848 21.4214 20.0944 21.5407 20.1122C21.6599 20.13 21.7429 20.2496 21.7266 20.3792L21.6618 20.8784ZM19.6394 20.8876C19.6183 21.0162 19.5054 21.1017 19.3872 21.0787C19.2691 21.0558 19.1906 20.9328 19.2117 20.8043L19.2946 20.3051C19.3158 20.1766 19.4287 20.0911 19.5468 20.114C19.665 20.137 19.7435 20.26 19.7224 20.3885L19.6394 20.8876ZM17.6171 20.8969C17.5912 21.0243 17.4752 21.105 17.3578 21.0769C17.2404 21.0487 17.1668 20.9225 17.1923 20.7951L17.2934 20.2959C17.3193 20.1685 17.4352 20.0877 17.5526 20.1159C17.67 20.144 17.7437 20.2703 17.7178 20.3977L17.6167 20.8969H17.6171ZM15.5947 20.9054C15.5647 21.0321 15.4459 21.108 15.3296 21.075C15.2133 21.0424 15.1433 20.9132 15.1737 20.7866L15.2929 20.2874C15.3229 20.1607 15.4418 20.0848 15.5581 20.1177C15.6743 20.1503 15.7443 20.2796 15.714 20.4062L15.5947 20.9054ZM13.5724 20.9139C13.5379 21.0395 13.4168 21.111 13.3013 21.0736C13.1861 21.0362 13.1202 20.9043 13.1546 20.7788L13.2924 20.2796C13.3268 20.154 13.4479 20.0826 13.5635 20.12C13.6786 20.1574 13.7446 20.2892 13.7101 20.4147L13.5724 20.9139ZM11.5493 20.9225C11.5107 21.0465 11.3871 21.1128 11.273 21.071C11.1589 21.0291 11.0982 20.8943 11.1367 20.7706L11.2926 20.2714C11.3311 20.1474 11.4548 20.0811 11.5689 20.1229C11.683 20.1648 11.7437 20.2996 11.7052 20.4233L11.5493 20.9225ZM9.52615 20.9299C9.48393 21.0521 9.3584 21.1143 9.24582 21.068C9.13324 21.0221 9.07657 20.8854 9.1188 20.7628L9.29285 20.2636C9.33507 20.1414 9.4606 20.0792 9.57318 20.1255C9.68576 20.1714 9.74243 20.3081 9.7002 20.4307L9.52615 20.9299ZM7.50304 20.9373C7.45675 21.058 7.32936 21.1154 7.21826 21.0654C7.10716 21.015 7.05457 20.8765 7.10049 20.7558L7.29269 20.2566C7.33898 20.1359 7.46637 20.0785 7.57747 20.1285C7.68857 20.1788 7.74116 20.3174 7.69524 20.4381L7.50304 20.9373ZM5.47917 20.9447C5.42918 21.0636 5.3003 21.1158 5.19105 21.0613C5.0818 21.0069 5.03366 20.8669 5.08366 20.748L5.29401 20.2488C5.344 20.13 5.47288 20.0777 5.58213 20.1322C5.69138 20.1866 5.73952 20.3266 5.68952 20.4455L5.47917 20.9447ZM4.21155 19.1378L1.27633 26.1107C0.393106 28.2094 0.640857 29.0318 2.91578 29.0318H50.1147C52.3715 29.0318 52.5944 28.0434 51.7423 26.0192L48.8456 19.1382H4.21108L4.21155 19.1378ZM2.91578 18.2476H50.1147C52.3715 18.2476 52.5944 17.2591 51.7423 15.235L46.8096 3.51724C45.9234 1.41232 45.6698 0.893077 43.3234 0.893077H9.70694C7.33239 0.893077 6.92834 1.89515 6.04221 4.00415L1.27615 15.3266C0.392916 17.4252 0.640667 18.2476 2.91559 18.2476L2.91578 18.2476ZM47.082 29.9217C47.0868 29.9309 47.0912 29.9402 47.0953 29.9498C47.1823 30.1531 47.0179 30.3153 46.7331 30.3146C46.4483 30.3139 46.1473 30.1483 46.0643 29.945C46.061 29.9372 46.0584 29.9295 46.0558 29.9221H45.01C45.013 29.9287 45.0159 29.9354 45.0185 29.9421C45.0967 30.1454 44.9304 30.3098 44.6408 30.3072C44.3512 30.3065 44.062 30.1424 43.9879 29.9391C43.986 29.9335 43.9842 29.928 43.9823 29.9224H42.938C42.9395 29.9265 42.941 29.9302 42.9424 29.9343C43.0121 30.138 42.8384 30.3024 42.5488 30.3013C42.264 30.3005 41.977 30.1346 41.9118 29.931C41.9107 29.928 41.91 29.925 41.9092 29.9224H40.8601C40.8605 29.9235 40.8609 29.925 40.8612 29.9261C40.922 30.1317 40.7413 30.2942 40.4517 30.2935C40.1621 30.2928 39.8869 30.1269 39.8254 29.9232V29.9228H38.7807C38.8303 30.1254 38.6377 30.2868 38.3544 30.2861C38.0634 30.2854 37.7938 30.1235 37.7412 29.9228H36.6909C36.725 30.1217 36.5321 30.2787 36.2525 30.278C35.9703 30.2772 35.7059 30.1213 35.6566 29.9228H34.6004C34.6237 30.118 34.4204 30.2728 34.1401 30.272C33.8657 30.2713 33.6109 30.1169 33.5661 29.9228H32.5085C32.5125 30.1143 32.3048 30.2646 32.0281 30.2639C31.7578 30.2631 31.5126 30.1128 31.4708 29.9228H30.4068C30.4024 30.1113 30.1898 30.2568 29.9161 30.2561C29.6451 30.2554 29.4132 30.1094 29.3751 29.9228H28.303C28.2811 30.1072 28.0689 30.2487 27.7993 30.248C27.5319 30.2472 27.309 30.1069 27.2738 29.9228H26.1191C26.0832 30.1035 25.8628 30.2424 25.5973 30.2417C25.3333 30.2394 25.1148 30.102 25.0829 29.9228H24.0042C23.9556 30.0998 23.732 30.2346 23.4705 30.2335C23.2105 30.2328 23.0046 30.0983 22.9721 29.9228H21.8925C21.8311 30.0969 21.6003 30.2265 21.3381 30.2257C21.0823 30.225 20.8841 30.0946 20.8578 29.9228H19.7705C19.6979 30.0924 19.4643 30.2183 19.2058 30.2176C18.954 30.2169 18.7636 30.0906 18.7366 29.9228H17.6426C17.5593 30.0887 17.3238 30.212 17.0738 30.2098C16.8209 30.2091 16.6372 30.0872 16.6165 29.9228H15.514C15.4207 30.0846 15.1863 30.2043 14.9318 30.2035C14.6874 30.2028 14.5074 30.0835 14.4878 29.9228H13.3791C13.2761 30.0817 13.0399 30.1961 12.7895 30.1954C12.5492 30.1946 12.3766 30.0795 12.3585 29.9228H11.2389C11.1271 30.0769 10.8901 30.1883 10.6475 30.1876C10.4035 30.1869 10.2357 30.0754 10.2194 29.9228H9.09438C8.97477 30.0732 8.73405 30.1817 8.49557 30.1794C8.2556 30.1787 8.0971 30.0721 8.08376 29.9228H6.9446C6.81535 30.0691 6.57723 30.1739 6.34356 30.1732C6.11137 30.1724 5.95323 30.068 5.93954 29.9228H4.53123L1.27757 37.6526C0.394336 39.7513 0.642087 40.5737 2.91701 40.5737H50.116C52.3728 40.5737 52.5956 39.5853 51.7436 37.5611L48.5284 29.9228H47.083L47.082 29.9217ZM47.0768 31.1386C47.3664 31.1393 47.6778 31.31 47.77 31.5256C47.8626 31.7411 47.6956 31.9177 47.4016 31.917C47.1075 31.9163 46.7983 31.7385 46.7105 31.523C46.6228 31.3075 46.7872 31.1378 47.0764 31.1386H47.0768ZM44.9493 31.1312C45.2437 31.1319 45.5481 31.3045 45.6311 31.5185C45.7144 31.7359 45.5451 31.9126 45.2407 31.9103C44.9467 31.9096 44.6452 31.7318 44.5667 31.5159C44.4886 31.3 44.6601 31.1304 44.9493 31.1312V31.1312ZM42.8218 31.1238C43.1162 31.1245 43.4132 31.2971 43.4869 31.513C43.5606 31.7289 43.384 31.9055 43.0847 31.9048C42.7855 31.904 42.4918 31.7263 42.4226 31.5085C42.3537 31.2926 42.5326 31.123 42.8218 31.1238H42.8218ZM40.6943 31.1182C40.9839 31.1189 41.2735 31.29 41.3376 31.5059C41.402 31.7218 41.2176 31.8988 40.9184 31.8981C40.6191 31.8974 40.3329 31.7192 40.2732 31.5033C40.2084 31.2871 40.3999 31.1156 40.6943 31.1182V31.1182ZM38.5564 31.1108C38.8508 31.1115 39.1334 31.2826 39.1882 31.4989C39.2434 31.717 39.0512 31.8922 38.7519 31.8915C38.4475 31.8907 38.169 31.7126 38.1135 31.4963C38.0631 31.28 38.262 31.1101 38.5564 31.1108ZM36.4185 31.1034C36.7129 31.1041 36.9828 31.2771 37.0284 31.4934C37.0791 31.7096 36.8743 31.8866 36.5803 31.8859C36.2811 31.8852 36.0052 31.707 35.9589 31.4889C35.9178 31.2726 36.1292 31.1027 36.4185 31.1034ZM34.2754 31.096C34.5699 31.0967 34.8372 31.2697 34.8739 31.4863C34.9102 31.703 34.6976 31.88 34.4036 31.8792C34.1044 31.8785 33.831 31.7 33.7992 31.4837C33.7677 31.2671 33.981 31.0952 34.2758 31.096H34.2754ZM32.1276 31.0904C32.422 31.0912 32.6819 31.2626 32.709 31.4793C32.736 31.6978 32.5208 31.8733 32.2216 31.8726C31.9224 31.8718 31.6565 31.6933 31.6343 31.4767C31.6121 31.26 31.8332 31.0878 32.1276 31.0904ZM29.9797 31.083C30.2741 31.0838 30.5267 31.2552 30.5444 31.4722C30.5618 31.6907 30.3341 31.8681 30.0401 31.8674C29.7408 31.8666 29.4879 31.6882 29.4698 31.4697C29.4568 31.2526 29.6853 31.0823 29.9797 31.0834V31.083ZM27.8266 31.0756C28.1184 31.0764 28.3662 31.2497 28.3743 31.4667C28.3825 31.6837 28.1466 31.8611 27.8473 31.8603C27.5481 31.8596 27.303 31.6807 27.2993 31.4622C27.2959 31.2452 27.5344 31.0749 27.8262 31.0756H27.8266ZM47.7676 32.7951C48.0668 32.7958 48.3979 32.9802 48.4949 33.208C48.5949 33.4413 48.4246 33.6283 48.1205 33.6276C47.8165 33.6272 47.4895 33.4391 47.3943 33.2039C47.3021 32.9776 47.4684 32.794 47.7676 32.7947V32.7951ZM45.5738 32.7888C45.8782 32.7895 46.1907 32.9758 46.2833 33.2021C46.3733 33.4354 46.1948 33.6228 45.8852 33.622C45.5812 33.6216 45.2675 33.4332 45.1775 33.1998C45.0953 32.9717 45.2745 32.788 45.5738 32.7884L45.5738 32.7888ZM43.3748 32.7825C43.6792 32.7832 43.9892 32.9695 44.0666 33.1961C44.1466 33.4313 43.9651 33.6187 43.6559 33.6183C43.3466 33.6179 43.0411 33.4276 42.9663 33.1943C42.8937 32.9676 43.0759 32.7821 43.3752 32.7829L43.3748 32.7825ZM41.1758 32.778C41.475 32.7788 41.7769 32.9636 41.8446 33.1921C41.9142 33.4257 41.725 33.6131 41.4154 33.6128C41.1062 33.6124 40.8088 33.4239 40.744 33.1884C40.6759 32.9617 40.8714 32.7758 41.1758 32.7784L41.1758 32.778ZM38.9713 32.7717C39.2705 32.7725 39.5645 32.9591 39.6223 33.1858C39.6819 33.4213 39.4845 33.6091 39.1749 33.6065C38.8657 33.6061 38.5709 33.4172 38.5165 33.1836C38.4635 32.9551 38.6617 32.771 38.9713 32.7714V32.7717ZM36.7564 32.7654C37.0608 32.7662 37.3467 32.9528 37.3948 33.1798C37.4444 33.4154 37.2385 33.6031 36.9293 33.6028C36.6253 33.6024 36.3334 33.4135 36.289 33.1776C36.246 32.9506 36.4575 32.7647 36.7564 32.7654V32.7654ZM34.5415 32.7592C34.8459 32.7614 35.1236 32.9469 35.1618 33.1758C35.201 33.4098 34.9873 33.5976 34.6777 33.5972C34.3685 33.5968 34.09 33.408 34.0504 33.1735C34.0171 32.9447 34.2419 32.7584 34.5411 32.7591L34.5415 32.7592ZM32.3266 32.7547C32.6258 32.7555 32.8954 32.9425 32.9239 33.1698C32.9583 33.4057 32.731 33.5939 32.4217 33.5931C32.1125 33.5909 31.8422 33.402 31.8129 33.1676C31.7896 32.9388 32.0225 32.754 32.3269 32.7547L32.3266 32.7547ZM30.1012 32.7484C30.4056 32.7492 30.6675 32.9362 30.6856 33.1654C30.7045 33.3998 30.4745 33.5879 30.1649 33.5872C29.8557 33.5868 29.5935 33.3976 29.5798 33.1613C29.5665 32.9339 29.7968 32.7477 30.1012 32.748V32.7484ZM27.8759 32.7421C28.1803 32.7429 28.434 32.9302 28.4425 33.1595C28.4514 33.3939 28.2129 33.5824 27.9033 33.5816C27.5941 33.5813 27.3404 33.392 27.3367 33.1572C27.3278 32.928 27.5715 32.7414 27.8759 32.7421V32.7421ZM48.5071 34.5552C48.8167 34.5556 49.1563 34.7541 49.2614 34.9996C49.3666 35.2452 49.1944 35.4499 48.8796 35.4496C48.5649 35.4492 48.2279 35.2437 48.1279 34.9982C48.0279 34.7508 48.1975 34.5549 48.5071 34.5552ZM46.2374 34.5501C46.5522 34.5523 46.878 34.7489 46.9725 34.9963C47.0669 35.2418 46.8918 35.4451 46.5714 35.4448C46.2566 35.4444 45.923 35.2407 45.8337 34.993C45.7445 34.7474 45.9226 34.5493 46.2374 34.5497V34.5501ZM43.9625 34.5467C44.2773 34.5471 44.5946 34.746 44.6787 34.9915C44.7683 35.2374 44.5783 35.4422 44.258 35.4418C43.9432 35.4414 43.624 35.2355 43.5451 34.99C43.4662 34.7423 43.6529 34.546 43.9625 34.5467ZM41.6876 34.5415C41.9972 34.5419 42.3112 34.7408 42.3845 34.9867C42.4579 35.2344 42.2649 35.4377 41.9446 35.4374C41.6242 35.437 41.3139 35.2329 41.2458 34.9852C41.1776 34.7393 41.3728 34.5412 41.6876 34.5415H41.6876ZM39.4071 34.5382C39.7167 34.5386 40.0222 34.736 40.0848 34.9837C40.1473 35.2296 39.9455 35.4351 39.6252 35.4348C39.3048 35.4344 38.9978 35.2285 38.9404 34.9822C38.883 34.7345 39.0867 34.5378 39.4071 34.5382H39.4071ZM37.1211 34.533C37.4307 34.5334 37.7277 34.7326 37.7795 34.9789C37.8317 35.227 37.6206 35.4307 37.3007 35.4303C36.9859 35.4299 36.6819 35.2255 36.6352 34.9774C36.5885 34.7311 36.8063 34.5326 37.1211 34.533ZM34.8298 34.5278C35.1446 34.5301 35.4276 34.7274 35.4746 34.9756C35.5161 35.2218 35.2909 35.4277 34.9761 35.4274C34.6558 35.427 34.361 35.2207 34.3247 34.9741C34.2888 34.726 34.5151 34.5275 34.8298 34.5278V34.5278ZM32.533 34.5245C32.8478 34.5249 33.1278 34.7245 33.1585 34.9707C33.1893 35.2192 32.9552 35.4229 32.6404 35.4225C32.3201 35.4222 32.0342 35.2174 32.0087 34.9693C31.9835 34.7208 32.2183 34.5238 32.533 34.5245ZM30.2362 34.5193C30.551 34.5197 30.8169 34.7193 30.8425 34.9678C30.8625 35.2144 30.6195 35.4203 30.2992 35.42C29.9844 35.4196 29.7126 35.2129 29.6926 34.9663C29.6778 34.7178 29.9215 34.5189 30.2362 34.5193ZM27.9287 34.516C28.2409 34.5164 28.506 34.716 28.5209 34.963C28.5301 35.2115 28.2783 35.4159 27.958 35.4155C27.6376 35.4151 27.3751 35.2103 27.371 34.9615C27.3673 34.7126 27.6165 34.5156 27.9287 34.516V34.516ZM49.3031 36.4517C49.6183 36.4521 49.979 36.6643 50.0916 36.9272C50.2042 37.192 50.0286 37.4108 49.7024 37.4105C49.3761 37.4086 49.0239 37.1909 48.9113 36.9261C48.8043 36.6631 48.9824 36.4509 49.3031 36.4513L49.3031 36.4517ZM46.946 36.448C47.2723 36.4484 47.6186 36.6624 47.7197 36.9257C47.8208 37.1886 47.6419 37.4079 47.3097 37.4079C46.9779 37.4075 46.635 37.1883 46.5394 36.925C46.4439 36.6617 46.6253 36.448 46.946 36.4484L46.946 36.448ZM44.5948 36.4461C44.9211 36.4465 45.2525 36.6609 45.3425 36.9242C45.4325 37.1875 45.244 37.4068 44.9118 37.4068C44.5856 37.4064 44.2523 37.1868 44.1678 36.9235C44.0838 36.6583 44.2741 36.4461 44.5948 36.4465L44.5948 36.4461ZM42.2377 36.4443C42.5584 36.4446 42.8862 36.6572 42.9647 36.9209C43.0432 37.186 42.8451 37.4056 42.5188 37.4053C42.1811 37.4049 41.857 37.1853 41.7844 36.9201C41.7115 36.6565 41.9115 36.4424 42.2377 36.4446V36.4443ZM39.875 36.4406C40.2013 36.4409 40.5142 36.6554 40.5812 36.919C40.6542 37.1827 40.4409 37.4023 40.1146 37.402C39.7769 37.4016 39.4569 37.182 39.3954 36.9179C39.334 36.6543 39.5432 36.4398 39.875 36.4402V36.4406ZM37.5068 36.4384C37.8275 36.4387 38.1367 36.6517 38.1927 36.9172C38.2482 37.1809 38.0312 37.4008 37.705 37.4005C37.3731 37.4001 37.0624 37.1801 37.0065 36.9165C36.9565 36.6509 37.1861 36.438 37.5068 36.4384ZM35.133 36.4347C35.4593 36.435 35.7596 36.6498 35.8037 36.9139C35.8478 37.1797 35.6215 37.3994 35.2893 37.3994C34.9575 37.399 34.6505 37.179 34.612 36.9131C34.5735 36.6491 34.8123 36.4347 35.133 36.4347ZM32.7537 36.4324C33.0799 36.4328 33.3706 36.648 33.4036 36.912C33.4362 37.1779 33.2003 37.3979 32.8685 37.3979C32.5366 37.3975 32.2393 37.1757 32.2122 36.9113C32.1852 36.6468 32.4333 36.4324 32.754 36.4324H32.7537ZM30.3743 36.4302C30.7005 36.4306 30.982 36.6439 31.0035 36.9102C31.0246 37.1746 30.779 37.3945 30.4472 37.3945C30.1154 37.3942 29.8332 37.1738 29.8177 36.9094C29.8021 36.6431 30.048 36.4302 30.3743 36.4306V36.4302ZM27.9894 36.4265C28.3156 36.4269 28.5878 36.642 28.5978 36.9068C28.6075 37.1731 28.3523 37.3934 28.0205 37.3931C27.6887 37.3927 27.4161 37.1723 27.4061 36.9057C27.4021 36.6409 27.6631 36.4261 27.9894 36.4265ZM50.1535 38.491C50.4861 38.491 50.8564 38.7155 50.979 39.0032C51.1008 39.2872 50.9201 39.5168 50.5813 39.5168C50.2428 39.5168 49.8758 39.2872 49.7599 39.0032C49.6436 38.7155 49.8206 38.4914 50.1535 38.4914L50.1535 38.491ZM47.7142 38.4903C48.0527 38.4903 48.413 38.7151 48.5234 39.0028C48.633 39.2869 48.4482 39.5168 48.0979 39.5168C47.7594 39.5168 47.4024 39.2869 47.2987 39.0028C47.1947 38.7151 47.3817 38.4907 47.7142 38.4907V38.4903ZM45.2749 38.4896C45.6134 38.4896 45.9586 38.7144 46.0563 39.0021C46.1537 39.2865 45.9589 39.5165 45.6145 39.5165C45.276 39.5165 44.9287 39.2865 44.8376 39.0021C44.7457 38.714 44.9424 38.4896 45.2749 38.4896ZM42.83 38.4888C43.1626 38.4888 43.5037 38.714 43.5892 39.0017C43.674 39.2861 43.4696 39.5165 43.1308 39.5165C42.7801 39.5165 42.4431 39.2861 42.3642 39.0017C42.2849 38.7136 42.4912 38.4888 42.8297 38.4888H42.83ZM40.3792 38.4881C40.7177 38.4881 41.0432 38.7132 41.1221 39.0014C41.1946 39.2861 40.9743 39.5165 40.6354 39.5165C40.2847 39.5165 39.9518 39.2861 39.8855 39.0014C39.8185 38.7129 40.0407 38.4881 40.3792 38.4881H40.3792ZM37.9224 38.4873C38.2609 38.4873 38.5768 38.7125 38.6431 39.001C38.7035 39.2858 38.4727 39.5165 38.1343 39.5165C37.7958 39.5165 37.4666 39.2861 37.4125 39.001C37.3521 38.7125 37.5895 38.4873 37.9224 38.4873ZM35.4657 38.4866C35.7982 38.4866 36.1104 38.7121 36.1586 39.0006C36.2123 39.2858 35.9719 39.5161 35.6272 39.5161C35.2887 39.5161 34.9695 39.2854 34.9276 38.9984C34.8798 38.7114 35.1269 38.4862 35.4653 38.4862L35.4657 38.4866ZM32.9971 38.4859C33.3297 38.4859 33.6318 38.7114 33.6733 38.9984C33.7089 39.2854 33.4582 39.5161 33.1138 39.5161C32.7753 39.5161 32.4661 39.2854 32.4368 38.998C32.4016 38.711 32.6586 38.4855 32.9971 38.4855L32.9971 38.4859ZM30.5289 38.4851C30.8614 38.4851 31.154 38.711 31.1829 38.998C31.2058 39.2854 30.9455 39.5161 30.6007 39.5161C30.2623 39.5161 29.9634 39.285 29.9464 38.9976C29.9293 38.7103 30.1904 38.4847 30.5289 38.4847V38.4851ZM28.0488 38.4825C28.3843 38.4825 28.6699 38.7103 28.6865 38.9977C28.6973 39.285 28.4266 39.5161 28.0818 39.5161C27.737 39.5161 27.4545 39.285 27.45 38.9977C27.4456 38.7103 27.7133 38.4825 28.0488 38.4829V38.4825ZM25.5869 31.0671C25.8839 31.0678 26.1187 31.2415 26.1172 31.4585C26.1153 31.6755 25.8717 31.8533 25.5724 31.8525C25.2732 31.8518 25.0358 31.6729 25.0425 31.4559C25.0488 31.2389 25.2899 31.0663 25.5869 31.0671L25.5869 31.0671ZM23.4238 31.0615C23.7182 31.0623 23.9482 31.2341 23.9371 31.4515C23.9312 31.6703 23.6794 31.8481 23.3753 31.8474C23.0761 31.8448 22.8465 31.6659 22.8624 31.4485C22.8783 31.2311 23.1294 31.0589 23.4238 31.0612V31.0615ZM21.2556 31.0541C21.55 31.0549 21.7826 31.2285 21.7622 31.4459C21.7414 31.6633 21.477 31.8411 21.1778 31.8403C20.8786 31.8396 20.6516 31.6603 20.6771 31.4415C20.7023 31.2241 20.9612 31.0534 21.2556 31.0541L21.2556 31.0541ZM19.0873 31.0467C19.3817 31.0474 19.6069 31.2215 19.5769 31.4389C19.5469 31.6563 19.2747 31.8344 18.9755 31.8337C18.6711 31.8329 18.457 31.6537 18.4922 31.4363C18.527 31.2171 18.7929 31.046 19.0877 31.0467H19.0873ZM16.9139 31.0393C17.2134 31.04 17.426 31.2141 17.3864 31.4318C17.3519 31.6511 17.0668 31.8292 16.7676 31.827C16.4684 31.8262 16.2569 31.647 16.3013 31.4293C16.3454 31.2115 16.6191 31.0386 16.9139 31.0397V31.0393ZM14.7404 31.0337C15.0452 31.0345 15.2448 31.2071 15.1959 31.4248C15.1466 31.6444 14.8641 31.8225 14.5597 31.8218C14.2553 31.8211 14.0519 31.6415 14.1056 31.4218C14.1593 31.2041 14.4408 31.0326 14.7404 31.0337V31.0337ZM12.5618 31.0263C12.8614 31.0271 13.0588 31.2015 13.0003 31.4193C12.9414 31.637 12.651 31.8155 12.3415 31.8148C12.0422 31.814 11.8467 31.6344 11.91 31.4148C11.9733 31.1967 12.2622 31.0256 12.5618 31.0263V31.0263ZM10.3784 31.0189C10.678 31.0197 10.8679 31.1941 10.7998 31.4122C10.7317 31.6322 10.4332 31.8107 10.1288 31.8081C9.81918 31.8074 9.63142 31.6278 9.70437 31.4096C9.77733 31.1897 10.0788 31.0182 10.3784 31.0189ZM8.19495 31.0115C8.48936 31.0123 8.67155 31.1867 8.59416 31.4052C8.51639 31.6252 8.21012 31.8036 7.90572 31.8029C7.59613 31.8022 7.41614 31.6222 7.49873 31.4022C7.58094 31.1841 7.89016 31.0108 8.19495 31.0115V31.0115ZM6.0011 31.006C6.30069 31.0067 6.47548 31.1797 6.38808 31.3996C6.30069 31.6181 5.98146 31.7966 5.67706 31.7959C5.37265 31.7951 5.19526 31.6152 5.28747 31.3952C5.37931 31.1767 5.70113 31.0052 6.00072 31.006L6.0011 31.006ZM25.561 32.7373C25.8654 32.738 26.1106 32.9254 26.1143 33.1532C26.1124 33.3898 25.8602 33.5779 25.5506 33.5775C25.2414 33.5772 24.9907 33.3861 24.9977 33.1513C25.0044 32.9217 25.2566 32.7369 25.561 32.7376V32.7373ZM23.3249 32.731C23.6294 32.7317 23.8715 32.9191 23.8601 33.1487C23.8478 33.3835 23.5875 33.572 23.2783 33.5716C22.9691 33.5712 22.7265 33.3816 22.7439 33.145C22.7606 32.9173 23.0209 32.7302 23.3253 32.731L23.3249 32.731ZM21.0889 32.7247C21.3933 32.7254 21.6274 32.9132 21.6059 33.1428C21.5888 33.3779 21.3096 33.5664 21 33.5661C20.6908 33.5657 20.4619 33.3761 20.4842 33.1409C20.5108 32.9113 20.7793 32.7243 21.0889 32.7251V32.7247ZM18.8425 32.7202C19.1521 32.721 19.3784 32.9087 19.3465 33.1369C19.3191 33.3739 19.0318 33.5624 18.7222 33.562C18.413 33.5616 18.1871 33.3702 18.2248 33.1346C18.2615 32.9047 18.5381 32.7177 18.8425 32.7202ZM16.6013 32.7139C16.9057 32.7147 17.129 32.9028 17.0872 33.1328C17.0442 33.368 16.7535 33.5568 16.4391 33.5564C16.1299 33.5561 15.9121 33.3661 15.9602 33.1287C16.0069 32.9002 16.2917 32.7132 16.6013 32.714V32.7139ZM14.3497 32.7077C14.6645 32.7084 14.8693 32.8965 14.8226 33.1265C14.7693 33.362 14.4704 33.5527 14.1556 33.5505C13.8409 33.5502 13.6316 33.3602 13.6901 33.1243C13.7468 32.8939 14.0449 32.7069 14.3493 32.7073L14.3497 32.7077ZM12.0981 32.7014C12.4077 32.7039 12.6092 32.8921 12.5477 33.1206C12.484 33.3579 12.1822 33.5472 11.8622 33.5464C11.553 33.5461 11.3519 33.3557 11.4208 33.1184C11.4874 32.888 11.7885 32.7006 12.0981 32.7014V32.7014ZM9.84131 32.6969C10.1509 32.6977 10.3442 32.8862 10.2727 33.1165C10.1987 33.3524 9.88315 33.5416 9.57393 33.5409C9.25397 33.5405 9.06141 33.3502 9.14065 33.1124C9.21731 32.8836 9.52653 32.6962 9.84168 32.6969L9.84131 32.6969ZM7.57939 32.6906C7.88898 32.6914 8.07415 32.8799 7.9923 33.1106C7.90787 33.3483 7.58939 33.5376 7.27461 33.5372C6.95465 33.535 6.77023 33.3446 6.85985 33.1083C6.9465 32.8776 7.26424 32.6899 7.57902 32.6906L7.57939 32.6906ZM5.31187 32.6843C5.62146 32.6851 5.79848 32.8754 5.70665 33.1043C5.61184 33.342 5.28521 33.5316 4.97044 33.5313C4.65566 33.5309 4.47457 33.3402 4.57456 33.1024C4.67121 32.8717 5.00784 32.684 5.31224 32.6843H5.31187ZM25.5325 34.5115C25.8503 34.5118 26.1066 34.7118 26.1047 34.9607C26.1029 35.2077 25.8414 35.414 25.5211 35.4136C25.2007 35.4132 24.9474 35.2062 24.9548 34.9573C24.9567 34.7103 25.2152 34.5111 25.5326 34.5115H25.5325ZM23.225 34.5081C23.5398 34.5085 23.785 34.7085 23.772 34.9559C23.7646 35.2047 23.4946 35.4095 23.1687 35.4091C22.8484 35.4088 22.604 35.2036 22.6221 34.9544C22.6347 34.7052 22.9099 34.5059 23.225 34.5081ZM20.9064 34.503C21.2212 34.5033 21.4686 34.7033 21.4449 34.9525C21.4212 35.1999 21.1368 35.4062 20.8164 35.4058C20.4905 35.4054 20.255 35.1984 20.2839 34.9492C20.3128 34.7018 20.5913 34.5022 20.906 34.503H20.9064ZM18.5878 34.4978C18.9026 34.4981 19.1411 34.6985 19.107 34.9477C19.0726 35.1969 18.7789 35.4036 18.4586 35.4014C18.1327 35.401 17.9064 35.1955 17.946 34.9462C17.9805 34.697 18.2727 34.4974 18.5878 34.4978H18.5878ZM16.264 34.4944C16.5787 34.4948 16.8087 34.6952 16.7635 34.9448C16.7184 35.1925 16.4158 35.3991 16.0955 35.3988C15.7696 35.3984 15.5522 35.191 15.5974 34.9414C15.6481 34.6937 15.9436 34.4941 16.264 34.4944L16.264 34.4944ZM13.9346 34.4893C14.2605 34.4896 14.4761 34.6903 14.4201 34.9399C14.3642 35.1895 14.0524 35.3966 13.7265 35.3962C13.4006 35.394 13.1921 35.1884 13.2484 34.9385C13.3099 34.6889 13.6199 34.4889 13.9346 34.4893ZM11.6053 34.4859C11.9257 34.4863 12.1327 34.687 12.0656 34.9366C11.9986 35.1847 11.6835 35.3917 11.352 35.3914C11.0317 35.391 10.8269 35.1833 10.8991 34.9333C10.9713 34.6833 11.2846 34.4852 11.605 34.4855L11.6053 34.4859ZM9.2704 34.4807C9.59073 34.4811 9.78886 34.6818 9.71108 34.9318C9.63331 35.1818 9.30335 35.3888 8.98302 35.3884C8.65158 35.388 8.45605 35.1803 8.539 34.9303C8.62232 34.6803 8.94413 34.4804 9.27002 34.4807H9.2704ZM6.93027 34.4756C7.2506 34.4759 7.44021 34.6785 7.35133 34.9288C7.26245 35.1773 6.9236 35.3843 6.59808 35.384C6.26664 35.3836 6.08556 35.1755 6.17961 34.9255C6.26849 34.6752 6.60438 34.4752 6.93027 34.4756ZM4.58463 34.4722C4.90497 34.4726 5.08569 34.6737 4.98607 34.924C4.88645 35.1744 4.53834 35.3817 4.21245 35.3814C3.88657 35.381 3.70362 35.1729 3.8088 34.9225C3.91397 34.6722 4.2643 34.4718 4.58463 34.4722ZM25.5078 36.4246C25.8341 36.425 26.0966 36.6405 26.0944 36.9053C26.0981 37.1719 25.827 37.3923 25.4952 37.3919C25.1634 37.3915 24.8949 37.169 24.9031 36.9042C24.9108 36.6375 25.1815 36.4242 25.5078 36.4246ZM23.1115 36.4209C23.4377 36.4213 23.6966 36.6368 23.6829 36.9034C23.6692 37.1682 23.3888 37.3908 23.0566 37.3904C22.7248 37.3886 22.466 37.1675 22.4856 36.9027C22.5049 36.6361 22.7852 36.4205 23.1115 36.4209ZM20.7095 36.4187C21.0413 36.419 21.2909 36.6349 21.2657 36.8997C21.2406 37.1667 20.9447 37.3875 20.6129 37.3871C20.281 37.3867 20.0318 37.1656 20.0629 36.899C20.094 36.6338 20.3832 36.4183 20.7095 36.4187ZM18.3076 36.4165C18.6394 36.4168 18.8797 36.6309 18.8427 36.8979C18.806 37.1649 18.5005 37.3856 18.1683 37.3856C17.8365 37.3852 17.5969 37.1641 17.6395 36.8971C17.6821 36.6301 17.9809 36.4161 18.3072 36.4165H18.3076ZM15.9 36.4128C16.2318 36.4131 16.4629 36.629 16.4144 36.8964C16.3718 37.1619 16.0507 37.3845 15.7189 37.3845C15.3812 37.3841 15.1575 37.1612 15.2116 36.8957C15.2657 36.6283 15.5741 36.4128 15.9004 36.4131L15.9 36.4128ZM13.487 36.4105C13.8244 36.4109 14.0458 36.6272 13.9858 36.8927C13.9258 37.1601 13.6066 37.3812 13.2633 37.3812C12.9256 37.3808 12.7115 37.1593 12.7771 36.8919C12.8374 36.6264 13.1604 36.4105 13.4866 36.4105L13.487 36.4105ZM11.0739 36.4068C11.4113 36.409 11.618 36.6235 11.5461 36.8912C11.4743 37.1586 11.1458 37.38 10.8021 37.38C10.4703 37.3797 10.26 37.1582 10.3374 36.8905C10.4148 36.6227 10.7418 36.4068 11.0739 36.4072V36.4068ZM8.65493 36.4046C8.98675 36.405 9.18931 36.6213 9.10599 36.889C9.02267 37.1549 8.67827 37.3782 8.34645 37.3778C8.00316 37.3775 7.80244 37.1541 7.89169 36.8879C7.98094 36.6201 8.3172 36.4039 8.65493 36.4042V36.4046ZM6.23042 36.4024C6.56224 36.4028 6.75555 36.6194 6.66038 36.8857C6.56521 37.1534 6.21154 37.3771 5.8738 37.3767C5.53051 37.3764 5.33979 37.1527 5.44052 36.8849C5.54162 36.6168 5.89306 36.4024 6.23042 36.4028V36.4024ZM3.80032 36.3987C4.13214 36.3991 4.31026 36.6157 4.20324 36.8838C4.10214 37.1519 3.73848 37.3738 3.40074 37.3734C3.06301 37.373 2.87637 37.1512 2.98894 36.8827C3.10152 36.6146 3.46814 36.3979 3.80032 36.3983V36.3987ZM25.4743 38.4825C25.8158 38.4825 26.0909 38.7102 26.0887 38.998C26.0865 39.2857 25.8054 39.5168 25.4606 39.5168C25.1159 39.5168 24.8437 39.2857 24.8522 38.998C24.8548 38.7102 25.1329 38.4825 25.4743 38.4828V38.4825ZM22.9943 38.4817C23.3328 38.4817 23.5953 38.7098 23.5805 38.9976C23.5657 39.2853 23.2802 39.5168 22.9298 39.5168C22.5851 39.5168 22.3229 39.2853 22.344 38.9976C22.3592 38.708 22.6502 38.4817 22.9943 38.4821V38.4817ZM20.5024 38.481C20.8408 38.481 21.0993 38.7073 21.0778 38.9972C21.0504 39.2853 20.7431 39.5168 20.3927 39.5168C20.048 39.5168 19.7961 39.2853 19.8295 38.9972C19.8572 38.7073 20.1579 38.481 20.5024 38.4814V38.481ZM18.0104 38.4802C18.3489 38.4802 18.5974 38.7069 18.5574 38.9968C18.5233 39.285 18.206 39.5168 17.8553 39.5168C17.5105 39.5168 17.2687 39.285 17.309 38.9968C17.3553 38.7069 17.666 38.4806 18.0104 38.4806V38.4802ZM15.5129 38.4795C15.8514 38.4795 16.0903 38.7061 16.0432 38.9965C15.9907 39.285 15.6633 39.5168 15.3126 39.5168C14.9678 39.5168 14.7304 39.285 14.789 38.9965C14.8478 38.7061 15.1685 38.4799 15.5129 38.4799L15.5129 38.4795ZM13.0096 38.4788C13.354 38.4788 13.5828 38.7054 13.5173 38.9961C13.4521 39.2846 13.1203 39.5168 12.764 39.5168C12.4193 39.5168 12.1919 39.2846 12.2634 38.9961C12.3352 38.7058 12.6655 38.4791 13.0099 38.4791L13.0096 38.4788ZM10.5002 38.478C10.8502 38.478 11.0635 38.705 10.9853 38.9957C10.9135 39.2846 10.5657 39.5168 10.2091 39.5168C9.86435 39.5168 9.64733 39.2846 9.73102 38.9957C9.81546 38.705 10.1558 38.4784 10.5002 38.4784V38.478ZM7.99083 38.4773C8.33524 38.4773 8.5441 38.7043 8.45337 38.995C8.36301 39.2839 8.0049 39.5164 7.65421 39.5164C7.30351 39.5164 7.0965 39.2842 7.19315 38.995C7.29017 38.7043 7.64051 38.4773 7.99083 38.4773ZM5.47 38.4747C5.81441 38.4747 6.01328 38.7036 5.90958 38.9946C5.81256 39.2839 5.44408 39.5161 5.09338 39.5161C4.73676 39.5161 4.54011 39.2835 4.64936 38.9943C4.75935 38.7032 5.11967 38.4743 5.46963 38.4743L5.47 38.4747ZM2.94918 38.4739C3.29358 38.4739 3.48245 38.7032 3.36616 38.9943C3.25061 39.2835 2.87178 39.516 2.52107 39.516C2.17037 39.516 1.97817 39.2835 2.10001 38.9939C2.22259 38.7028 2.60476 38.4736 2.94917 38.4736L2.94918 38.4739ZM48.527 41.4618H4.52955L1.27589 49.1916C0.392662 51.2903 0.640412 52.1127 2.91533 52.1127H50.1143C52.3711 52.1127 52.594 51.1243 51.7419 49.1001L48.5267 41.4618H48.527Z" fill="#494B44"/>
</svg>
