<svg width="60" height="59" viewBox="0 0 60 59" fill="none" xmlns="http://www.w3.org/2000/svg">
<g opacity="0.7">
<path d="M26.1662 53.4514C26.0957 53.4514 26.0259 53.4347 25.9606 53.4027L0.253609 40.5495C0.0979866 40.4714 0 40.3126 0 40.139V14.9305C0 14.7716 0.0819733 14.6237 0.21646 14.5404C0.351588 14.4572 0.521304 14.4476 0.66284 14.5193L26.3698 27.283C26.5267 27.3617 26.6247 27.5206 26.6247 27.6947V52.9919C26.6247 53.1507 26.5421 53.2986 26.407 53.3832C26.334 53.428 26.2494 53.4504 26.1662 53.4504V53.4514ZM0.918238 39.8552L25.7071 52.25V27.9792L0.918238 15.671V39.8552Z" fill="#494B44"/>
<path d="M28.0022 53.4514C27.9189 53.4514 27.8344 53.4283 27.7607 53.3835C27.6256 53.299 27.543 53.1517 27.543 52.9929V27.6941C27.543 27.5199 27.641 27.3611 27.7985 27.283L53.5055 14.5193C53.6476 14.4476 53.8161 14.4572 53.9519 14.5404C54.0851 14.6237 54.1677 14.7723 54.1677 14.9305V40.139C54.1677 40.3126 54.0697 40.4714 53.9141 40.5496L28.2071 53.4027C28.1424 53.4354 28.0726 53.4514 28.0022 53.4514V53.4514ZM28.4613 27.9789V52.2497L53.2502 39.8549V15.671L28.4613 27.9789Z" fill="#494B44"/>
<path d="M27.0068 26.367C26.9369 26.367 26.8671 26.3504 26.8018 26.319L1.24895 13.6195C1.08564 13.5388 0.98573 13.3678 0.994698 13.1853C1.00366 13.0027 1.12022 12.8426 1.29121 12.7792L26.9982 3.10058C27.1019 3.06087 27.2178 3.06087 27.3223 3.10058L53.0292 12.7792C53.2009 12.8433 53.3174 13.004 53.3258 13.1872C53.3347 13.3697 53.2342 13.5407 53.0702 13.6214L27.2091 26.3203C27.1444 26.3516 27.0759 26.367 27.0068 26.367V26.367ZM2.60151 13.2666L27.0068 25.3968L51.7104 13.264L27.1592 4.0195L2.60151 13.2666Z" fill="#494B44"/>
<path d="M31.9787 0.67334L53.6264 9.31452L53.2863 10.1669L31.6387 1.52574L31.9787 0.67334Z" fill="#494B44"/>
<path d="M32.3761 3.15863L32.3358 1.31094L33.6365 0L29.2637 0.0851759L32.3761 3.15863Z" fill="#494B44"/>
<path d="M51.6328 10.8445L52.9341 9.53356L52.8938 7.68652L56.0062 10.7592L51.6328 10.8445Z" fill="#494B44"/>
<path d="M57.8398 16.2681H58.7582V38.3026H57.8398V16.2681Z" fill="#494B44"/>
<path d="M60.0002 37.1025L58.2999 37.8256L56.5996 37.1025L58.2999 41.1334L60.0002 37.1025Z" fill="#494B44"/>
<path d="M60.0002 17.5432L58.2999 16.8214L56.5996 17.5432L58.2999 13.5137L60.0002 17.5432Z" fill="#494B44"/>
<path d="M53.3604 45.0356L53.7837 45.8496L30.7671 57.814L30.3438 57L53.3604 45.0356Z" fill="#494B44"/>
<path d="M32.4862 58.3236L31.0613 57.1484L30.9178 55.3066L28.127 58.6746L32.4862 58.3236Z" fill="#494B44"/>
<path d="M53.2123 47.5442L53.0695 45.703L51.6445 44.5279L56.0039 44.1763L53.2123 47.5442Z" fill="#494B44"/>
</g>
</svg>
