<svg width="60" height="54" viewBox="0 0 60 54" fill="none" xmlns="http://www.w3.org/2000/svg">
<path d="M57.0733 27.0663L58.7639 28.9271C59.5196 29.7589 59.2264 30.8221 58.2481 31.3054L56.4511 32.1933L58.1417 34.0541C58.8974 34.8859 58.6042 35.9491 57.6259 36.4324L23.1156 53.4831C22.1943 53.9385 20.7639 53.8312 20.0783 53.0054L0.404015 29.3006C-0.290041 28.4642 -0.0733347 27.4254 0.926979 26.9312L2.62048 26.0944L1.02625 24.1736C0.308969 23.3093 0.581855 22.2824 1.54922 21.8042L3.24272 20.9673L1.64849 19.0465C0.931629 18.1827 1.20494 17.1545 2.17146 16.6771L35.397 0.261166C36.3268 -0.198017 37.7111 -0.0577671 38.4272 0.730059L59.3873 23.8C60.1574 24.6474 59.83 25.7047 58.8715 26.1783L57.0733 27.0663ZM3.48888 24.141C3.16614 24.2373 3.01998 23.7464 3.34271 23.6501L3.81583 23.5086C4.13857 23.4123 4.28473 23.9031 3.962 23.9994L3.48888 24.141ZM4.78193 15.9572L3.40312 20.3611L6.82225 24.4806L10.3529 13.2047L4.78193 15.9572ZM3.20836 20.1266L4.46464 16.114L2.39729 17.1354C1.72732 17.4666 1.53553 18.1112 2.04033 18.7195L3.20794 20.1262L3.20836 20.1266ZM10.6702 13.0484L7.01701 24.7158L10.4361 28.8354L16.2412 10.2966L10.6702 13.0484ZM16.5584 10.1392L10.6309 29.0694L14.05 33.189L22.1294 7.38629L16.5584 10.1392ZM22.4466 7.22992L14.2447 33.4241L17.6638 37.5437L28.0171 4.47705L22.4461 7.22959L22.4466 7.22992ZM28.3348 4.32068L17.8586 37.7788L21.2777 41.8983L33.9055 1.5689L28.3344 4.32144L28.3348 4.32068ZM34.2231 1.41144L21.4731 42.1323L21.7156 42.4247C22.2466 43.0642 23.429 43.1056 24.1335 42.7702L26.3205 41.6896L38.7839 1.88469L38.0476 1.07447C37.4866 0.457303 36.3456 0.362257 35.6224 0.719634L34.2229 1.41115L34.2231 1.41144ZM38.9835 2.10465L26.638 41.5333L32.209 38.7807L42.4859 5.95959L38.9835 2.10465ZM42.6852 6.17901L32.5262 38.6238L38.0973 35.8713L46.1873 10.034L42.6849 6.17923L42.6852 6.17901ZM46.3869 10.2534L38.4143 35.7154L43.9854 32.9629L49.8889 14.1083L46.3869 10.2534ZM50.0886 14.3277L44.303 32.806L49.874 30.0534L53.591 18.1827L50.0886 14.3277ZM53.7903 18.4021L50.1912 29.8965L55.7623 27.144L57.2923 22.2569L53.7899 18.4022L53.7903 18.4021ZM57.492 22.4765L56.0794 26.9872L58.644 25.7199C59.298 25.3967 59.5468 24.7381 59.0078 24.1447L57.4916 22.476L57.492 22.4765ZM56.3675 29.2742C56.4981 29.3282 56.5597 29.4782 56.5057 29.6087C56.4516 29.7393 56.3016 29.8009 56.1711 29.7469L55.7204 29.5589C55.5898 29.5048 55.5282 29.3548 55.5822 29.2243C55.6363 29.0938 55.7863 29.0321 55.9168 29.0862L56.3675 29.2742ZM52.3811 31.6845C52.4816 31.5857 52.6434 31.587 52.7427 31.6875C52.8415 31.788 52.8403 31.9498 52.7397 32.0491L52.4111 32.3731C52.3106 32.472 52.1488 32.4707 52.0495 32.3702C51.9506 32.2696 51.9519 32.1078 52.0524 32.0085L52.3811 31.6845ZM48.9066 33.3045C48.8086 33.2027 48.812 33.0409 48.9138 32.9429C49.0156 32.8449 49.1774 32.8483 49.2754 32.9501L49.5935 33.2817C49.6915 33.3835 49.6881 33.5453 49.5863 33.6433C49.4845 33.7413 49.3227 33.7379 49.2247 33.6361L48.9066 33.3045ZM45.1394 34.0011C45.2805 33.9956 45.3992 34.1054 45.4046 34.2465C45.4101 34.3876 45.3003 34.5063 45.1592 34.5118L44.6586 34.5321C44.5175 34.5376 44.3988 34.4277 44.3934 34.2867C44.3879 34.1456 44.4977 34.0269 44.6388 34.0214L45.1394 34.0011ZM41.6493 37.1439C41.5745 37.0244 41.6109 36.8672 41.7304 36.7925C41.85 36.7177 42.0071 36.754 42.0819 36.8736L42.3184 37.2516C42.3932 37.3712 42.3569 37.5283 42.2373 37.6031C42.1178 37.6779 41.9606 37.6415 41.8859 37.522L41.6493 37.1439ZM37.1065 38.3069C37.2476 38.3014 37.3662 38.4112 37.3717 38.5523C37.3772 38.6934 37.2674 38.8121 37.1263 38.8176L36.6257 38.8379C36.4846 38.8434 36.3659 38.7335 36.3605 38.5924C36.355 38.4513 36.4648 38.3326 36.6059 38.3272L37.1065 38.3069ZM33.3793 40.9023C33.3046 40.7827 33.3409 40.6256 33.4605 40.5508C33.58 40.4761 33.7371 40.5124 33.8119 40.6319L34.0485 41.01C34.1232 41.1296 34.0869 41.2867 33.9674 41.3615C33.8478 41.4362 33.6907 41.3999 33.6159 41.2804L33.3793 40.9023ZM30.1461 41.6965C30.2872 41.691 30.4059 41.8008 30.4114 41.9419C30.4169 42.083 30.3071 42.2017 30.166 42.2072L29.6654 42.2275C29.5243 42.2329 29.4056 42.1231 29.4001 41.982C29.3946 41.8409 29.5044 41.7222 29.6455 41.7167L30.1461 41.6965ZM26.31 44.2635C26.1689 44.2652 26.0532 44.152 26.0515 44.0113C26.0498 43.8703 26.163 43.7545 26.3037 43.7528L26.8047 43.7452C26.9457 43.7435 27.0615 43.8567 27.0632 43.9974C27.0649 44.1385 26.9517 44.2542 26.811 44.2559L26.31 44.2635ZM24.3495 45.6175C24.4682 45.6939 24.5028 45.8519 24.4268 45.9711C24.3503 46.0898 24.1923 46.1244 24.0732 46.0484L23.6719 45.7911C23.5532 45.7146 23.5186 45.5566 23.5946 45.4375C23.6711 45.3188 23.8291 45.2842 23.9482 45.3602L24.3495 45.6175ZM20.6993 44.3578C20.7998 44.259 20.9616 44.2603 21.0609 44.3608C21.1597 44.4613 21.1584 44.6231 21.0579 44.7224L20.7292 45.0464C20.6287 45.1453 20.4669 45.144 20.3676 45.0434C20.2688 44.9429 20.2701 44.7811 20.3706 44.6818L20.6993 44.3578ZM17.8111 41.4887C17.7562 41.3582 17.8179 41.2078 17.9484 41.1533C18.0789 41.0984 18.2293 41.1601 18.2838 41.2906L18.4532 41.6944C18.5081 41.825 18.4464 41.9754 18.3159 42.0299C18.1854 42.0848 18.035 42.0231 17.9805 41.8926L17.8111 41.4887ZM16.023 38.4193C16.1586 38.459 16.2359 38.6014 16.1962 38.737C16.1565 38.8726 16.0141 38.9499 15.8785 38.9102L15.4045 38.7704C15.2689 38.7307 15.1916 38.5883 15.2313 38.4527C15.2711 38.3171 15.4134 38.2398 15.549 38.2795L16.023 38.4193ZM13.6104 35.5692C13.7093 35.6698 13.708 35.8316 13.6075 35.9308C13.5069 36.0297 13.3451 36.0284 13.2459 35.9279L12.924 35.5992C12.8251 35.4987 12.8264 35.3369 12.9269 35.2376C13.0275 35.1388 13.1893 35.14 13.2885 35.2406L13.6104 35.5692ZM11.0742 32.1699C11.1747 32.0711 11.3365 32.0723 11.4358 32.1729C11.5346 32.2734 11.5334 32.4352 11.4328 32.5345L11.1042 32.8585C11.0036 32.9573 10.8418 32.9561 10.7426 32.8555C10.6437 32.755 10.645 32.5932 10.7455 32.4939L11.0742 32.1699ZM8.31656 30.2081C8.1818 30.2495 8.0386 30.1739 7.9972 30.0387C7.9558 29.9039 8.03142 29.7607 8.16659 29.7193L8.63803 29.5732C8.77279 29.5318 8.91599 29.6074 8.95738 29.7426C8.99878 29.8773 8.92317 30.0205 8.78799 30.0619L8.31656 30.2081ZM5.85924 27.1054C5.73209 27.0433 5.67928 26.89 5.74096 26.7628C5.80305 26.6356 5.9564 26.5828 6.08355 26.6445L6.51907 26.857C6.64622 26.9191 6.69903 27.0724 6.63736 27.1996C6.57526 27.3267 6.42192 27.3795 6.29476 27.3179L5.85924 27.1054ZM3.57809 21.3717L1.77515 22.2626C1.10475 22.5938 0.913818 23.2388 1.41819 23.8467C7.97474 31.7461 14.5347 39.6506 21.0925 47.5514C21.6235 48.191 22.8059 48.2455 23.5104 47.897L58.0207 30.8462C58.6915 30.5146 58.9125 29.8518 58.3844 29.271L56.595 27.3016L24.3589 43.2288C23.3417 43.7412 22.0073 43.5769 21.3217 42.751L3.57663 21.3713L3.57809 21.3717ZM55.974 32.4292L23.7379 48.3564C22.8166 48.8118 21.3863 48.7045 20.7007 47.8786L2.95563 26.4989L1.15268 27.3898C0.451868 27.7362 0.312051 28.391 0.796149 28.9739L20.4704 52.6786C21.0014 53.3182 22.1838 53.3727 22.8884 53.0242L57.3987 35.9734C58.0695 35.6418 58.2904 34.979 57.7624 34.3982L55.974 32.4292Z" fill="#494B44"/>
</svg>
