<svg width="35" height="50" viewBox="0 0 35 50" fill="none" xmlns="http://www.w3.org/2000/svg">
<g opacity="0.6">
<path d="M17.5076 11.0669C17.0056 11.0669 16.5665 11.5064 16.5665 12.008V22.2991L13.8054 19.5379C13.429 19.1615 12.8013 19.1615 12.4874 19.5379C12.111 19.9144 12.111 20.5421 12.4874 20.8559L16.8798 25.2484C17.0681 25.4366 17.3193 25.4992 17.5701 25.4992C17.8209 25.4992 18.0722 25.4366 18.2604 25.2484L22.6528 20.8559C23.0293 20.4795 23.0293 19.8518 22.6528 19.5379C22.2764 19.1615 21.6487 19.1615 21.3348 19.5379L18.5737 22.2991L18.5741 12.0711C18.449 11.5064 18.0095 11.067 17.5074 11.067L17.5076 11.0669Z" fill="#494B44"/>
<path d="M33.948 13.0751C33.446 13.0751 33.007 13.5145 33.007 14.0161V45.768C33.007 46.8347 32.1285 47.7131 31.0618 47.7131H3.82803C2.76132 47.7131 1.88287 46.8346 1.88287 45.768V3.85053C1.88287 2.78382 2.76135 1.90537 3.82803 1.90537H23.6572V7.74096C23.6572 9.62359 25.226 11.1924 27.1086 11.1924H33.8857C34.2621 11.1924 34.6386 10.9415 34.7642 10.6277C34.8898 10.3139 34.8268 9.87483 34.576 9.561L25.2885 0.273563C25.0377 0.0227512 24.7239 -0.0402796 24.4726 0.0227512H3.89043C1.75702 0.0227512 0 1.77977 0 3.91318V45.8306C0 47.964 1.75702 49.721 3.89043 49.721H31.0615C33.1949 49.721 34.9519 47.964 34.9519 45.8306V14.016C34.8893 13.514 34.5129 13.075 33.9482 13.075L33.948 13.0751ZM27.1079 9.24726C26.2294 9.24726 25.5391 8.55698 25.5391 7.6785V3.16045L31.6259 9.24726H27.1079Z" fill="#494B44"/>
<path d="M9.78855 35.2261C9.34908 35.2261 8.97266 35.5399 8.97266 36.042V41.815C8.97266 42.3797 9.34909 42.6935 9.78855 42.6935C10.2906 42.6935 10.6044 42.3797 10.6044 41.815V40.2463H11.8593C13.4907 40.2463 14.3691 39.1796 14.3691 37.7365C14.3691 36.0421 13.1142 35.2267 11.7963 35.2267L9.78855 35.2261ZM12.6122 37.7359C12.6122 38.2379 12.2358 38.74 11.4829 38.74H10.6044V36.7317H11.4829C12.1732 36.7317 12.6122 37.1086 12.6122 37.7359V37.7359Z" fill="#494B44"/>
<path d="M16.0639 35.2261C15.6245 35.2261 15.248 35.54 15.248 36.042V41.7524C15.248 42.3171 15.6245 42.5683 16.0639 42.5683L18.0722 42.5679C19.8917 42.5679 21.5236 41.2499 21.5236 38.8026C21.5236 36.92 20.2687 35.1631 18.0722 35.1631H16.0639V35.2261ZM19.7661 38.9283C19.7661 40.2463 19.1384 41.1248 17.821 41.1248H16.9425V36.7949H17.8836C19.1389 36.7949 19.7662 37.6734 19.7662 38.9283H19.7661Z" fill="#494B44"/>
<path d="M25.9161 36.7948C26.4182 36.7948 26.732 36.481 26.732 36.0419C26.732 35.6025 26.4182 35.2891 25.9161 35.2891H23.3432C22.9038 35.2891 22.5273 35.6029 22.5273 36.105V41.878C22.5273 42.4427 22.9038 42.7565 23.3432 42.7565C23.8453 42.7565 24.1591 42.4427 24.1591 41.878V39.7446H25.6653C26.1673 39.7446 26.4812 39.4308 26.4812 38.9917C26.4812 38.4897 26.1673 38.2389 25.6653 38.2389H24.1591V36.9209L25.9161 36.92L25.9161 36.7948Z" fill="#494B44"/>
<path d="M24.2213 29.3273C24.2213 28.8253 23.7818 28.3862 23.2802 28.3862H11.734C11.232 28.3862 10.793 28.8257 10.793 29.3273C10.793 29.8294 11.2324 30.2684 11.734 30.2684H23.2802C23.7822 30.2684 24.2217 29.892 24.2217 29.3273H24.2213Z" fill="#494B44"/>
</g>
</svg>
